<svg xmlns="http://www.w3.org/2000/svg" xmlns:xlink="http://www.w3.org/1999/xlink" contentStyleType="text/css" data-diagram-type="CLASS" height="760px" preserveAspectRatio="none" style="width:3397px;height:760px;background:#FFFFFF;" version="1.1" viewBox="0 0 3397 760" width="3397px" zoomAndPan="magnify"><defs/><g><!--cluster controllers--><g id="cluster_controllers"><path d="M801.5,113 L887.9287,113 A3.75,3.75 0 0 1 890.4287,115.5 L897.4287,135.2969 L1802.5,135.2969 A2.5,2.5 0 0 1 1805,137.7969 L1805,285.5 A2.5,2.5 0 0 1 1802.5,288 L801.5,288 A2.5,2.5 0 0 1 799,285.5 L799,115.5 A2.5,2.5 0 0 1 801.5,113 " fill="none" style="stroke:#000000;stroke-width:1.5;"/><line style="stroke:#000000;stroke-width:1.5;" x1="799" x2="897.4287" y1="135.2969" y2="135.2969"/><text fill="#000000" font-family="sans-serif" font-size="14" font-weight="bold" lengthAdjust="spacing" textLength="85.4287" x="803" y="127.9951">controllers</text></g><!--cluster models--><g id="cluster_models"><path d="M703.5,312 L761.3545,312 A3.75,3.75 0 0 1 763.8545,314.5 L770.8545,334.2969 L944.5,334.2969 A2.5,2.5 0 0 1 947,336.7969 L947,576.5 A2.5,2.5 0 0 1 944.5,579 L703.5,579 A2.5,2.5 0 0 1 701,576.5 L701,314.5 A2.5,2.5 0 0 1 703.5,312 " fill="none" style="stroke:#000000;stroke-width:1.5;"/><line style="stroke:#000000;stroke-width:1.5;" x1="701" x2="770.8545" y1="334.2969" y2="334.2969"/><text fill="#000000" font-family="sans-serif" font-size="14" font-weight="bold" lengthAdjust="spacing" textLength="56.8545" x="705" y="326.9951">models</text></g><!--cluster repositories--><g id="cluster_repositories"><path d="M8.5,113 L104.5127,113 A3.75,3.75 0 0 1 107.0127,115.5 L114.0127,135.2969 L772.5,135.2969 A2.5,2.5 0 0 1 775,137.7969 L775,285.5 A2.5,2.5 0 0 1 772.5,288 L8.5,288 A2.5,2.5 0 0 1 6,285.5 L6,115.5 A2.5,2.5 0 0 1 8.5,113 " fill="none" style="stroke:#000000;stroke-width:1.5;"/><line style="stroke:#000000;stroke-width:1.5;" x1="6" x2="114.0127" y1="135.2969" y2="135.2969"/><text fill="#000000" font-family="sans-serif" font-size="14" font-weight="bold" lengthAdjust="spacing" textLength="95.0127" x="10" y="127.9951">repositories</text></g><!--cluster schemas--><g id="cluster_schemas"><path d="M1831.5,205 L1900.9619,205 A3.75,3.75 0 0 1 1903.4619,207.5 L1910.4619,227.2969 L3387.5,227.2969 A2.5,2.5 0 0 1 3390,229.7969 L3390,576.5 A2.5,2.5 0 0 1 3387.5,579 L1831.5,579 A2.5,2.5 0 0 1 1829,576.5 L1829,207.5 A2.5,2.5 0 0 1 1831.5,205 " fill="none" style="stroke:#000000;stroke-width:1.5;"/><line style="stroke:#000000;stroke-width:1.5;" x1="1829" x2="1910.4619" y1="227.2969" y2="227.2969"/><text fill="#000000" font-family="sans-serif" font-size="14" font-weight="bold" lengthAdjust="spacing" textLength="68.4619" x="1833" y="219.9951">schemas</text></g><!--cluster shared--><g id="cluster_shared"><path d="M1835.5,603 L1890.668,603 A3.75,3.75 0 0 1 1893.168,605.5 L1900.168,625.2969 L2513.5,625.2969 A2.5,2.5 0 0 1 2516,627.7969 L2516,750.5 A2.5,2.5 0 0 1 2513.5,753 L1835.5,753 A2.5,2.5 0 0 1 1833,750.5 L1833,605.5 A2.5,2.5 0 0 1 1835.5,603 " fill="none" style="stroke:#000000;stroke-width:1.5;"/><line style="stroke:#000000;stroke-width:1.5;" x1="1833" x2="1900.168" y1="625.2969" y2="625.2969"/><text fill="#000000" font-family="sans-serif" font-size="14" font-weight="bold" lengthAdjust="spacing" textLength="54.168" x="1837" y="617.9951">shared</text></g><!--cluster enums--><g id="cluster_enums"><path d="M1859.5,646 L1912.8496,646 A3.75,3.75 0 0 1 1915.3496,648.5 L1922.3496,668.2969 L2489.5,668.2969 A2.5,2.5 0 0 1 2492,670.7969 L2492,726.5 A2.5,2.5 0 0 1 2489.5,729 L1859.5,729 A2.5,2.5 0 0 1 1857,726.5 L1857,648.5 A2.5,2.5 0 0 1 1859.5,646 " fill="none" style="stroke:#000000;stroke-width:1.5;"/><line style="stroke:#000000;stroke-width:1.5;" x1="1857" x2="1922.3496" y1="668.2969" y2="668.2969"/><text fill="#000000" font-family="sans-serif" font-size="14" font-weight="bold" lengthAdjust="spacing" textLength="52.3496" x="1861" y="660.9951">enums</text></g><!--cluster views--><g id="cluster_views"><path d="M819.5,6 L865.1865,6 A3.75,3.75 0 0 1 867.6865,8.5 L874.6865,28.2969 L1950.5,28.2969 A2.5,2.5 0 0 1 1953,30.7969 L1953,86.5 A2.5,2.5 0 0 1 1950.5,89 L819.5,89 A2.5,2.5 0 0 1 817,86.5 L817,8.5 A2.5,2.5 0 0 1 819.5,6 " fill="none" style="stroke:#000000;stroke-width:1.5;"/><line style="stroke:#000000;stroke-width:1.5;" x1="817" x2="874.6865" y1="28.2969" y2="28.2969"/><text fill="#000000" font-family="sans-serif" font-size="14" font-weight="bold" lengthAdjust="spacing" textLength="44.6865" x="821" y="20.9951">views</text></g><!--class AccountController--><g id="elem_AccountController"><rect codeLine="9" fill="#F1F1F1" height="32" id="AccountController" rx="2.5" ry="2.5" style="stroke:#181818;stroke-width:0.5;" width="157.9453" x="984.03" y="148"/><ellipse cx="999.03" cy="164" fill="#ADD1B2" rx="11" ry="11" style="stroke:#181818;stroke-width:1;"/><path d="M1001.9988,169.6406 Q1001.4206,169.9375 1000.78,170.0781 Q1000.1394,170.2344 999.4363,170.2344 Q996.9363,170.2344 995.6081,168.5938 Q994.2956,166.9375 994.2956,163.8125 Q994.2956,160.6875 995.6081,159.0313 Q996.9363,157.375 999.4363,157.375 Q1000.1394,157.375 1000.78,157.5313 Q1001.4363,157.6875 1001.9988,157.9844 L1001.9988,160.7031 Q1001.3738,160.125 1000.78,159.8594 Q1000.1863,159.5781 999.5613,159.5781 Q998.2175,159.5781 997.53,160.6563 Q996.8425,161.7188 996.8425,163.8125 Q996.8425,165.9063 997.53,166.9844 Q998.2175,168.0469 999.5613,168.0469 Q1000.1863,168.0469 1000.78,167.7813 Q1001.3738,167.5 1001.9988,166.9219 L1001.9988,169.6406 Z " fill="#000000"/><text fill="#000000" font-family="sans-serif" font-size="14" lengthAdjust="spacing" textLength="125.9453" x="1013.03" y="168.8467">AccountController</text></g><!--class AccountOverviewController--><g id="elem_AccountOverviewController"><rect codeLine="19" fill="#F1F1F1" height="32" id="AccountOverviewController" rx="2.5" ry="2.5" style="stroke:#181818;stroke-width:0.5;" width="223.8574" x="1565.07" y="148"/><ellipse cx="1580.07" cy="164" fill="#ADD1B2" rx="11" ry="11" style="stroke:#181818;stroke-width:1;"/><path d="M1583.0388,169.6406 Q1582.4606,169.9375 1581.82,170.0781 Q1581.1794,170.2344 1580.4763,170.2344 Q1577.9763,170.2344 1576.6481,168.5938 Q1575.3356,166.9375 1575.3356,163.8125 Q1575.3356,160.6875 1576.6481,159.0313 Q1577.9763,157.375 1580.4763,157.375 Q1581.1794,157.375 1581.82,157.5313 Q1582.4763,157.6875 1583.0388,157.9844 L1583.0388,160.7031 Q1582.4138,160.125 1581.82,159.8594 Q1581.2263,159.5781 1580.6013,159.5781 Q1579.2575,159.5781 1578.57,160.6563 Q1577.8825,161.7188 1577.8825,163.8125 Q1577.8825,165.9063 1578.57,166.9844 Q1579.2575,168.0469 1580.6013,168.0469 Q1581.2263,168.0469 1581.82,167.7813 Q1582.4138,167.5 1583.0388,166.9219 L1583.0388,169.6406 Z " fill="#000000"/><text fill="#000000" font-family="sans-serif" font-size="14" lengthAdjust="spacing" textLength="191.8574" x="1594.07" y="168.8467">AccountOverviewController</text></g><!--class CardController--><g id="elem_CardController"><rect codeLine="28" fill="#F1F1F1" height="32" id="CardController" rx="2.5" ry="2.5" style="stroke:#181818;stroke-width:0.5;" width="134.1699" x="1176.92" y="148"/><ellipse cx="1191.92" cy="164" fill="#ADD1B2" rx="11" ry="11" style="stroke:#181818;stroke-width:1;"/><path d="M1194.8888,169.6406 Q1194.3106,169.9375 1193.67,170.0781 Q1193.0294,170.2344 1192.3263,170.2344 Q1189.8263,170.2344 1188.4981,168.5938 Q1187.1856,166.9375 1187.1856,163.8125 Q1187.1856,160.6875 1188.4981,159.0313 Q1189.8263,157.375 1192.3263,157.375 Q1193.0294,157.375 1193.67,157.5313 Q1194.3263,157.6875 1194.8888,157.9844 L1194.8888,160.7031 Q1194.2638,160.125 1193.67,159.8594 Q1193.0763,159.5781 1192.4513,159.5781 Q1191.1075,159.5781 1190.42,160.6563 Q1189.7325,161.7188 1189.7325,163.8125 Q1189.7325,165.9063 1190.42,166.9844 Q1191.1075,168.0469 1192.4513,168.0469 Q1193.0763,168.0469 1193.67,167.7813 Q1194.2638,167.5 1194.8888,166.9219 L1194.8888,169.6406 Z " fill="#000000"/><text fill="#000000" font-family="sans-serif" font-size="14" lengthAdjust="spacing" textLength="102.1699" x="1205.92" y="168.8467">CardController</text></g><!--class TransactionController--><g id="elem_TransactionController"><rect codeLine="36" fill="#F1F1F1" height="32" id="TransactionController" rx="2.5" ry="2.5" style="stroke:#181818;stroke-width:0.5;" width="183.3203" x="1346.34" y="148"/><ellipse cx="1361.34" cy="164" fill="#ADD1B2" rx="11" ry="11" style="stroke:#181818;stroke-width:1;"/><path d="M1364.3088,169.6406 Q1363.7306,169.9375 1363.09,170.0781 Q1362.4494,170.2344 1361.7463,170.2344 Q1359.2463,170.2344 1357.9181,168.5938 Q1356.6056,166.9375 1356.6056,163.8125 Q1356.6056,160.6875 1357.9181,159.0313 Q1359.2463,157.375 1361.7463,157.375 Q1362.4494,157.375 1363.09,157.5313 Q1363.7463,157.6875 1364.3088,157.9844 L1364.3088,160.7031 Q1363.6838,160.125 1363.09,159.8594 Q1362.4963,159.5781 1361.8713,159.5781 Q1360.5275,159.5781 1359.84,160.6563 Q1359.1525,161.7188 1359.1525,163.8125 Q1359.1525,165.9063 1359.84,166.9844 Q1360.5275,168.0469 1361.8713,168.0469 Q1362.4963,168.0469 1363.09,167.7813 Q1363.6838,167.5 1364.3088,166.9219 L1364.3088,169.6406 Z " fill="#000000"/><text fill="#000000" font-family="sans-serif" font-size="14" lengthAdjust="spacing" textLength="151.3203" x="1375.34" y="168.8467">TransactionController</text></g><!--class UserController--><g id="elem_UserController"><rect codeLine="49" fill="#F1F1F1" height="32" id="UserController" rx="2.5" ry="2.5" style="stroke:#181818;stroke-width:0.5;" width="133.083" x="815.46" y="148"/><ellipse cx="830.46" cy="164" fill="#ADD1B2" rx="11" ry="11" style="stroke:#181818;stroke-width:1;"/><path d="M833.4288,169.6406 Q832.8506,169.9375 832.21,170.0781 Q831.5694,170.2344 830.8663,170.2344 Q828.3663,170.2344 827.0381,168.5938 Q825.7256,166.9375 825.7256,163.8125 Q825.7256,160.6875 827.0381,159.0313 Q828.3663,157.375 830.8663,157.375 Q831.5694,157.375 832.21,157.5313 Q832.8663,157.6875 833.4288,157.9844 L833.4288,160.7031 Q832.8038,160.125 832.21,159.8594 Q831.6163,159.5781 830.9913,159.5781 Q829.6475,159.5781 828.96,160.6563 Q828.2725,161.7188 828.2725,163.8125 Q828.2725,165.9063 828.96,166.9844 Q829.6475,168.0469 830.9913,168.0469 Q831.6163,168.0469 832.21,167.7813 Q832.8038,167.5 833.4288,166.9219 L833.4288,169.6406 Z " fill="#000000"/><text fill="#000000" font-family="sans-serif" font-size="14" lengthAdjust="spacing" textLength="101.083" x="844.46" y="168.8467">UserController</text></g><!--class TransactionSerializerController--><g id="elem_TransactionSerializerController"><rect codeLine="58" fill="#F1F1F1" height="32" id="TransactionSerializerController" rx="2.5" ry="2.5" style="stroke:#181818;stroke-width:0.5;" width="248.542" x="1426.73" y="240"/><ellipse cx="1441.73" cy="256" fill="#ADD1B2" rx="11" ry="11" style="stroke:#181818;stroke-width:1;"/><path d="M1444.6988,261.6406 Q1444.1206,261.9375 1443.48,262.0781 Q1442.8394,262.2344 1442.1363,262.2344 Q1439.6363,262.2344 1438.3081,260.5938 Q1436.9956,258.9375 1436.9956,255.8125 Q1436.9956,252.6875 1438.3081,251.0313 Q1439.6363,249.375 1442.1363,249.375 Q1442.8394,249.375 1443.48,249.5313 Q1444.1363,249.6875 1444.6988,249.9844 L1444.6988,252.7031 Q1444.0738,252.125 1443.48,251.8594 Q1442.8863,251.5781 1442.2613,251.5781 Q1440.9175,251.5781 1440.23,252.6563 Q1439.5425,253.7188 1439.5425,255.8125 Q1439.5425,257.9063 1440.23,258.9844 Q1440.9175,260.0469 1442.2613,260.0469 Q1442.8863,260.0469 1443.48,259.7813 Q1444.0738,259.5 1444.6988,258.9219 L1444.6988,261.6406 Z " fill="#000000"/><text fill="#000000" font-family="sans-serif" font-size="14" lengthAdjust="spacing" textLength="216.542" x="1455.73" y="260.8467">TransactionSerializerController</text></g><!--class Account--><g id="elem_Account"><rect codeLine="64" fill="#F1F1F1" height="32" id="Account" rx="2.5" ry="2.5" style="stroke:#181818;stroke-width:0.5;" width="88.7725" x="716.61" y="439"/><ellipse cx="731.61" cy="455" fill="#ADD1B2" rx="11" ry="11" style="stroke:#181818;stroke-width:1;"/><path d="M734.5788,460.6406 Q734.0006,460.9375 733.36,461.0781 Q732.7194,461.2344 732.0163,461.2344 Q729.5163,461.2344 728.1881,459.5938 Q726.8756,457.9375 726.8756,454.8125 Q726.8756,451.6875 728.1881,450.0313 Q729.5163,448.375 732.0163,448.375 Q732.7194,448.375 733.36,448.5313 Q734.0163,448.6875 734.5788,448.9844 L734.5788,451.7031 Q733.9538,451.125 733.36,450.8594 Q732.7663,450.5781 732.1413,450.5781 Q730.7975,450.5781 730.11,451.6563 Q729.4225,452.7188 729.4225,454.8125 Q729.4225,456.9063 730.11,457.9844 Q730.7975,459.0469 732.1413,459.0469 Q732.7663,459.0469 733.36,458.7813 Q733.9538,458.5 734.5788,457.9219 L734.5788,460.6406 Z " fill="#000000"/><text fill="#000000" font-family="sans-serif" font-size="14" lengthAdjust="spacing" textLength="56.7725" x="745.61" y="459.8467">Account</text></g><!--class Card--><g id="elem_Card"><rect codeLine="75" fill="#F1F1F1" height="32" id="Card" rx="2.5" ry="2.5" style="stroke:#181818;stroke-width:0.5;" width="64.9971" x="716.5" y="347"/><ellipse cx="731.5" cy="363" fill="#ADD1B2" rx="11" ry="11" style="stroke:#181818;stroke-width:1;"/><path d="M734.4688,368.6406 Q733.8906,368.9375 733.25,369.0781 Q732.6094,369.2344 731.9063,369.2344 Q729.4063,369.2344 728.0781,367.5938 Q726.7656,365.9375 726.7656,362.8125 Q726.7656,359.6875 728.0781,358.0313 Q729.4063,356.375 731.9063,356.375 Q732.6094,356.375 733.25,356.5313 Q733.9063,356.6875 734.4688,356.9844 L734.4688,359.7031 Q733.8438,359.125 733.25,358.8594 Q732.6563,358.5781 732.0313,358.5781 Q730.6875,358.5781 730,359.6563 Q729.3125,360.7188 729.3125,362.8125 Q729.3125,364.9063 730,365.9844 Q730.6875,367.0469 732.0313,367.0469 Q732.6563,367.0469 733.25,366.7813 Q733.8438,366.5 734.4688,365.9219 L734.4688,368.6406 Z " fill="#000000"/><text fill="#000000" font-family="sans-serif" font-size="14" lengthAdjust="spacing" textLength="32.9971" x="745.5" y="367.8467">Card</text></g><!--class Transaction--><g id="elem_Transaction"><rect codeLine="88" fill="#F1F1F1" height="32" id="Transaction" rx="2.5" ry="2.5" style="stroke:#181818;stroke-width:0.5;" width="114.1475" x="816.93" y="347"/><ellipse cx="831.93" cy="363" fill="#ADD1B2" rx="11" ry="11" style="stroke:#181818;stroke-width:1;"/><path d="M834.8988,368.6406 Q834.3206,368.9375 833.68,369.0781 Q833.0394,369.2344 832.3363,369.2344 Q829.8363,369.2344 828.5081,367.5938 Q827.1956,365.9375 827.1956,362.8125 Q827.1956,359.6875 828.5081,358.0313 Q829.8363,356.375 832.3363,356.375 Q833.0394,356.375 833.68,356.5313 Q834.3363,356.6875 834.8988,356.9844 L834.8988,359.7031 Q834.2738,359.125 833.68,358.8594 Q833.0863,358.5781 832.4613,358.5781 Q831.1175,358.5781 830.43,359.6563 Q829.7425,360.7188 829.7425,362.8125 Q829.7425,364.9063 830.43,365.9844 Q831.1175,367.0469 832.4613,367.0469 Q833.0863,367.0469 833.68,366.7813 Q834.2738,366.5 834.8988,365.9219 L834.8988,368.6406 Z " fill="#000000"/><text fill="#000000" font-family="sans-serif" font-size="14" lengthAdjust="spacing" textLength="82.1475" x="845.93" y="367.8467">Transaction</text></g><!--class User--><g id="elem_User"><rect codeLine="103" fill="#F1F1F1" height="32" id="User" rx="2.5" ry="2.5" style="stroke:#181818;stroke-width:0.5;" width="63.9102" x="723.04" y="531"/><ellipse cx="738.04" cy="547" fill="#ADD1B2" rx="11" ry="11" style="stroke:#181818;stroke-width:1;"/><path d="M741.0088,552.6406 Q740.4306,552.9375 739.79,553.0781 Q739.1494,553.2344 738.4463,553.2344 Q735.9463,553.2344 734.6181,551.5938 Q733.3056,549.9375 733.3056,546.8125 Q733.3056,543.6875 734.6181,542.0313 Q735.9463,540.375 738.4463,540.375 Q739.1494,540.375 739.79,540.5313 Q740.4463,540.6875 741.0088,540.9844 L741.0088,543.7031 Q740.3838,543.125 739.79,542.8594 Q739.1963,542.5781 738.5713,542.5781 Q737.2275,542.5781 736.54,543.6563 Q735.8525,544.7188 735.8525,546.8125 Q735.8525,548.9063 736.54,549.9844 Q737.2275,551.0469 738.5713,551.0469 Q739.1963,551.0469 739.79,550.7813 Q740.3838,550.5 741.0088,549.9219 L741.0088,552.6406 Z " fill="#000000"/><text fill="#000000" font-family="sans-serif" font-size="14" lengthAdjust="spacing" textLength="31.9102" x="752.04" y="551.8467">User</text></g><!--class AccountRepository--><g id="elem_AccountRepository"><rect codeLine="114" fill="#F1F1F1" height="32" id="AccountRepository" rx="2.5" ry="2.5" style="stroke:#181818;stroke-width:0.5;" width="163.8447" x="195.08" y="240"/><ellipse cx="210.08" cy="256" fill="#ADD1B2" rx="11" ry="11" style="stroke:#181818;stroke-width:1;"/><path d="M213.0488,261.6406 Q212.4706,261.9375 211.83,262.0781 Q211.1894,262.2344 210.4863,262.2344 Q207.9863,262.2344 206.6581,260.5938 Q205.3456,258.9375 205.3456,255.8125 Q205.3456,252.6875 206.6581,251.0313 Q207.9863,249.375 210.4863,249.375 Q211.1894,249.375 211.83,249.5313 Q212.4863,249.6875 213.0488,249.9844 L213.0488,252.7031 Q212.4238,252.125 211.83,251.8594 Q211.2363,251.5781 210.6113,251.5781 Q209.2675,251.5781 208.58,252.6563 Q207.8925,253.7188 207.8925,255.8125 Q207.8925,257.9063 208.58,258.9844 Q209.2675,260.0469 210.6113,260.0469 Q211.2363,260.0469 211.83,259.7813 Q212.4238,259.5 213.0488,258.9219 L213.0488,261.6406 Z " fill="#000000"/><text fill="#000000" font-family="sans-serif" font-size="14" lengthAdjust="spacing" textLength="131.8447" x="224.08" y="260.8467">AccountRepository</text></g><!--class CardRepository--><g id="elem_CardRepository"><rect codeLine="120" fill="#F1F1F1" height="32" id="CardRepository" rx="2.5" ry="2.5" style="stroke:#181818;stroke-width:0.5;" width="140.0693" x="393.97" y="240"/><ellipse cx="408.97" cy="256" fill="#ADD1B2" rx="11" ry="11" style="stroke:#181818;stroke-width:1;"/><path d="M411.9388,261.6406 Q411.3606,261.9375 410.72,262.0781 Q410.0794,262.2344 409.3763,262.2344 Q406.8763,262.2344 405.5481,260.5938 Q404.2356,258.9375 404.2356,255.8125 Q404.2356,252.6875 405.5481,251.0313 Q406.8763,249.375 409.3763,249.375 Q410.0794,249.375 410.72,249.5313 Q411.3763,249.6875 411.9388,249.9844 L411.9388,252.7031 Q411.3138,252.125 410.72,251.8594 Q410.1263,251.5781 409.5013,251.5781 Q408.1575,251.5781 407.47,252.6563 Q406.7825,253.7188 406.7825,255.8125 Q406.7825,257.9063 407.47,258.9844 Q408.1575,260.0469 409.5013,260.0469 Q410.1263,260.0469 410.72,259.7813 Q411.3138,259.5 411.9388,258.9219 L411.9388,261.6406 Z " fill="#000000"/><text fill="#000000" font-family="sans-serif" font-size="14" lengthAdjust="spacing" textLength="108.0693" x="422.97" y="260.8467">CardRepository</text></g><!--class TransactionRepository--><g id="elem_TransactionRepository"><rect codeLine="125" fill="#F1F1F1" height="32" id="TransactionRepository" rx="2.5" ry="2.5" style="stroke:#181818;stroke-width:0.5;" width="189.2197" x="569.39" y="240"/><ellipse cx="584.39" cy="256" fill="#ADD1B2" rx="11" ry="11" style="stroke:#181818;stroke-width:1;"/><path d="M587.3588,261.6406 Q586.7806,261.9375 586.14,262.0781 Q585.4994,262.2344 584.7963,262.2344 Q582.2963,262.2344 580.9681,260.5938 Q579.6556,258.9375 579.6556,255.8125 Q579.6556,252.6875 580.9681,251.0313 Q582.2963,249.375 584.7963,249.375 Q585.4994,249.375 586.14,249.5313 Q586.7963,249.6875 587.3588,249.9844 L587.3588,252.7031 Q586.7338,252.125 586.14,251.8594 Q585.5463,251.5781 584.9213,251.5781 Q583.5775,251.5781 582.89,252.6563 Q582.2025,253.7188 582.2025,255.8125 Q582.2025,257.9063 582.89,258.9844 Q583.5775,260.0469 584.9213,260.0469 Q585.5463,260.0469 586.14,259.7813 Q586.7338,259.5 587.3588,258.9219 L587.3588,261.6406 Z " fill="#000000"/><text fill="#000000" font-family="sans-serif" font-size="14" lengthAdjust="spacing" textLength="157.2197" x="598.39" y="260.8467">TransactionRepository</text></g><!--class UserRepository--><g id="elem_UserRepository"><rect codeLine="130" fill="#F1F1F1" height="32" id="UserRepository" rx="2.5" ry="2.5" style="stroke:#181818;stroke-width:0.5;" width="138.9824" x="21.51" y="240"/><ellipse cx="36.51" cy="256" fill="#ADD1B2" rx="11" ry="11" style="stroke:#181818;stroke-width:1;"/><path d="M39.4788,261.6406 Q38.9006,261.9375 38.26,262.0781 Q37.6194,262.2344 36.9163,262.2344 Q34.4163,262.2344 33.0881,260.5938 Q31.7756,258.9375 31.7756,255.8125 Q31.7756,252.6875 33.0881,251.0313 Q34.4163,249.375 36.9163,249.375 Q37.6194,249.375 38.26,249.5313 Q38.9163,249.6875 39.4788,249.9844 L39.4788,252.7031 Q38.8538,252.125 38.26,251.8594 Q37.6663,251.5781 37.0413,251.5781 Q35.6975,251.5781 35.01,252.6563 Q34.3225,253.7188 34.3225,255.8125 Q34.3225,257.9063 35.01,258.9844 Q35.6975,260.0469 37.0413,260.0469 Q37.6663,260.0469 38.26,259.7813 Q38.8538,259.5 39.4788,258.9219 L39.4788,261.6406 Z " fill="#000000"/><text fill="#000000" font-family="sans-serif" font-size="14" lengthAdjust="spacing" textLength="106.9824" x="50.51" y="260.8467">UserRepository</text></g><!--class RepositoryBase--><g id="elem_RepositoryBase"><rect codeLine="134" fill="#F1F1F1" height="32" id="RepositoryBase" rx="2.5" ry="2.5" style="stroke:#181818;stroke-width:0.5;" width="141.1631" x="299.42" y="148"/><ellipse cx="314.42" cy="164" fill="#ADD1B2" rx="11" ry="11" style="stroke:#181818;stroke-width:1;"/><path d="M317.3888,169.6406 Q316.8106,169.9375 316.17,170.0781 Q315.5294,170.2344 314.8263,170.2344 Q312.3263,170.2344 310.9981,168.5938 Q309.6856,166.9375 309.6856,163.8125 Q309.6856,160.6875 310.9981,159.0313 Q312.3263,157.375 314.8263,157.375 Q315.5294,157.375 316.17,157.5313 Q316.8263,157.6875 317.3888,157.9844 L317.3888,160.7031 Q316.7638,160.125 316.17,159.8594 Q315.5763,159.5781 314.9513,159.5781 Q313.6075,159.5781 312.92,160.6563 Q312.2325,161.7188 312.2325,163.8125 Q312.2325,165.9063 312.92,166.9844 Q313.6075,168.0469 314.9513,168.0469 Q315.5763,168.0469 316.17,167.7813 Q316.7638,167.5 317.3888,166.9219 L317.3888,169.6406 Z " fill="#000000"/><text fill="#000000" font-family="sans-serif" font-size="14" lengthAdjust="spacing" textLength="109.1631" x="328.42" y="168.8467">RepositoryBase</text></g><!--class AccountResponse--><g id="elem_AccountResponse"><rect codeLine="144" fill="#F1F1F1" height="32" id="AccountResponse" rx="2.5" ry="2.5" style="stroke:#181818;stroke-width:0.5;" width="156.6396" x="2469.68" y="439"/><ellipse cx="2484.68" cy="455" fill="#ADD1B2" rx="11" ry="11" style="stroke:#181818;stroke-width:1;"/><path d="M2487.6488,460.6406 Q2487.0706,460.9375 2486.43,461.0781 Q2485.7894,461.2344 2485.0863,461.2344 Q2482.5863,461.2344 2481.2581,459.5938 Q2479.9456,457.9375 2479.9456,454.8125 Q2479.9456,451.6875 2481.2581,450.0313 Q2482.5863,448.375 2485.0863,448.375 Q2485.7894,448.375 2486.43,448.5313 Q2487.0863,448.6875 2487.6488,448.9844 L2487.6488,451.7031 Q2487.0238,451.125 2486.43,450.8594 Q2485.8363,450.5781 2485.2113,450.5781 Q2483.8675,450.5781 2483.18,451.6563 Q2482.4925,452.7188 2482.4925,454.8125 Q2482.4925,456.9063 2483.18,457.9844 Q2483.8675,459.0469 2485.2113,459.0469 Q2485.8363,459.0469 2486.43,458.7813 Q2487.0238,458.5 2487.6488,457.9219 L2487.6488,460.6406 Z " fill="#000000"/><text fill="#000000" font-family="sans-serif" font-size="14" lengthAdjust="spacing" textLength="124.6396" x="2498.68" y="459.8467">AccountResponse</text></g><!--class AddMoneyRequest--><g id="elem_AddMoneyRequest"><rect codeLine="152" fill="#F1F1F1" height="32" id="AddMoneyRequest" rx="2.5" ry="2.5" style="stroke:#181818;stroke-width:0.5;" width="163.2637" x="1845.37" y="240"/><ellipse cx="1860.37" cy="256" fill="#ADD1B2" rx="11" ry="11" style="stroke:#181818;stroke-width:1;"/><path d="M1863.3388,261.6406 Q1862.7606,261.9375 1862.12,262.0781 Q1861.4794,262.2344 1860.7763,262.2344 Q1858.2763,262.2344 1856.9481,260.5938 Q1855.6356,258.9375 1855.6356,255.8125 Q1855.6356,252.6875 1856.9481,251.0313 Q1858.2763,249.375 1860.7763,249.375 Q1861.4794,249.375 1862.12,249.5313 Q1862.7763,249.6875 1863.3388,249.9844 L1863.3388,252.7031 Q1862.7138,252.125 1862.12,251.8594 Q1861.5263,251.5781 1860.9013,251.5781 Q1859.5575,251.5781 1858.87,252.6563 Q1858.1825,253.7188 1858.1825,255.8125 Q1858.1825,257.9063 1858.87,258.9844 Q1859.5575,260.0469 1860.9013,260.0469 Q1861.5263,260.0469 1862.12,259.7813 Q1862.7138,259.5 1863.3388,258.9219 L1863.3388,261.6406 Z " fill="#000000"/><text fill="#000000" font-family="sans-serif" font-size="14" lengthAdjust="spacing" textLength="131.2637" x="1874.37" y="260.8467">AddMoneyRequest</text></g><!--class CardResponse--><g id="elem_CardResponse"><rect codeLine="156" fill="#F1F1F1" height="32" id="CardResponse" rx="2.5" ry="2.5" style="stroke:#181818;stroke-width:0.5;" width="132.8643" x="2301.57" y="347"/><ellipse cx="2316.57" cy="363" fill="#ADD1B2" rx="11" ry="11" style="stroke:#181818;stroke-width:1;"/><path d="M2319.5388,368.6406 Q2318.9606,368.9375 2318.32,369.0781 Q2317.6794,369.2344 2316.9763,369.2344 Q2314.4763,369.2344 2313.1481,367.5938 Q2311.8356,365.9375 2311.8356,362.8125 Q2311.8356,359.6875 2313.1481,358.0313 Q2314.4763,356.375 2316.9763,356.375 Q2317.6794,356.375 2318.32,356.5313 Q2318.9763,356.6875 2319.5388,356.9844 L2319.5388,359.7031 Q2318.9138,359.125 2318.32,358.8594 Q2317.7263,358.5781 2317.1013,358.5781 Q2315.7575,358.5781 2315.07,359.6563 Q2314.3825,360.7188 2314.3825,362.8125 Q2314.3825,364.9063 2315.07,365.9844 Q2315.7575,367.0469 2317.1013,367.0469 Q2317.7263,367.0469 2318.32,366.7813 Q2318.9138,366.5 2319.5388,365.9219 L2319.5388,368.6406 Z " fill="#000000"/><text fill="#000000" font-family="sans-serif" font-size="14" lengthAdjust="spacing" textLength="100.8643" x="2330.57" y="367.8467">CardResponse</text></g><!--class CreateAccountRequest--><g id="elem_CreateAccountRequest"><rect codeLine="167" fill="#F1F1F1" height="32" id="CreateAccountRequest" rx="2.5" ry="2.5" style="stroke:#181818;stroke-width:0.5;" width="193.0957" x="2043.45" y="240"/><ellipse cx="2058.45" cy="256" fill="#ADD1B2" rx="11" ry="11" style="stroke:#181818;stroke-width:1;"/><path d="M2061.4188,261.6406 Q2060.8406,261.9375 2060.2,262.0781 Q2059.5594,262.2344 2058.8563,262.2344 Q2056.3563,262.2344 2055.0281,260.5938 Q2053.7156,258.9375 2053.7156,255.8125 Q2053.7156,252.6875 2055.0281,251.0313 Q2056.3563,249.375 2058.8563,249.375 Q2059.5594,249.375 2060.2,249.5313 Q2060.8563,249.6875 2061.4188,249.9844 L2061.4188,252.7031 Q2060.7938,252.125 2060.2,251.8594 Q2059.6063,251.5781 2058.9813,251.5781 Q2057.6375,251.5781 2056.95,252.6563 Q2056.2625,253.7188 2056.2625,255.8125 Q2056.2625,257.9063 2056.95,258.9844 Q2057.6375,260.0469 2058.9813,260.0469 Q2059.6063,260.0469 2060.2,259.7813 Q2060.7938,259.5 2061.4188,258.9219 L2061.4188,261.6406 Z " fill="#000000"/><text fill="#000000" font-family="sans-serif" font-size="14" lengthAdjust="spacing" textLength="161.0957" x="2072.45" y="260.8467">CreateAccountRequest</text></g><!--class CreateCardRequest--><g id="elem_CreateCardRequest"><rect codeLine="173" fill="#F1F1F1" height="32" id="CreateCardRequest" rx="2.5" ry="2.5" style="stroke:#181818;stroke-width:0.5;" width="169.3203" x="2271.34" y="240"/><ellipse cx="2286.34" cy="256" fill="#ADD1B2" rx="11" ry="11" style="stroke:#181818;stroke-width:1;"/><path d="M2289.3088,261.6406 Q2288.7306,261.9375 2288.09,262.0781 Q2287.4494,262.2344 2286.7463,262.2344 Q2284.2463,262.2344 2282.9181,260.5938 Q2281.6056,258.9375 2281.6056,255.8125 Q2281.6056,252.6875 2282.9181,251.0313 Q2284.2463,249.375 2286.7463,249.375 Q2287.4494,249.375 2288.09,249.5313 Q2288.7463,249.6875 2289.3088,249.9844 L2289.3088,252.7031 Q2288.6838,252.125 2288.09,251.8594 Q2287.4963,251.5781 2286.8713,251.5781 Q2285.5275,251.5781 2284.84,252.6563 Q2284.1525,253.7188 2284.1525,255.8125 Q2284.1525,257.9063 2284.84,258.9844 Q2285.5275,260.0469 2286.8713,260.0469 Q2287.4963,260.0469 2288.09,259.7813 Q2288.6838,259.5 2289.3088,258.9219 L2289.3088,261.6406 Z " fill="#000000"/><text fill="#000000" font-family="sans-serif" font-size="14" lengthAdjust="spacing" textLength="137.3203" x="2300.34" y="260.8467">CreateCardRequest</text></g><!--class CreateTransactionRequest--><g id="elem_CreateTransactionRequest"><rect codeLine="178" fill="#F1F1F1" height="32" id="CreateTransactionRequest" rx="2.5" ry="2.5" style="stroke:#181818;stroke-width:0.5;" width="218.4707" x="1844.76" y="347"/><ellipse cx="1859.76" cy="363" fill="#ADD1B2" rx="11" ry="11" style="stroke:#181818;stroke-width:1;"/><path d="M1862.7288,368.6406 Q1862.1506,368.9375 1861.51,369.0781 Q1860.8694,369.2344 1860.1663,369.2344 Q1857.6663,369.2344 1856.3381,367.5938 Q1855.0256,365.9375 1855.0256,362.8125 Q1855.0256,359.6875 1856.3381,358.0313 Q1857.6663,356.375 1860.1663,356.375 Q1860.8694,356.375 1861.51,356.5313 Q1862.1663,356.6875 1862.7288,356.9844 L1862.7288,359.7031 Q1862.1038,359.125 1861.51,358.8594 Q1860.9163,358.5781 1860.2913,358.5781 Q1858.9475,358.5781 1858.26,359.6563 Q1857.5725,360.7188 1857.5725,362.8125 Q1857.5725,364.9063 1858.26,365.9844 Q1858.9475,367.0469 1860.2913,367.0469 Q1860.9163,367.0469 1861.51,366.7813 Q1862.1038,366.5 1862.7288,365.9219 L1862.7288,368.6406 Z " fill="#000000"/><text fill="#000000" font-family="sans-serif" font-size="14" lengthAdjust="spacing" textLength="186.4707" x="1873.76" y="367.8467">CreateTransactionRequest</text></g><!--class CreateUserRequest--><g id="elem_CreateUserRequest"><rect codeLine="184" fill="#F1F1F1" height="32" id="CreateUserRequest" rx="2.5" ry="2.5" style="stroke:#181818;stroke-width:0.5;" width="168.2334" x="2097.88" y="347"/><ellipse cx="2112.88" cy="363" fill="#ADD1B2" rx="11" ry="11" style="stroke:#181818;stroke-width:1;"/><path d="M2115.8488,368.6406 Q2115.2706,368.9375 2114.63,369.0781 Q2113.9894,369.2344 2113.2863,369.2344 Q2110.7863,369.2344 2109.4581,367.5938 Q2108.1456,365.9375 2108.1456,362.8125 Q2108.1456,359.6875 2109.4581,358.0313 Q2110.7863,356.375 2113.2863,356.375 Q2113.9894,356.375 2114.63,356.5313 Q2115.2863,356.6875 2115.8488,356.9844 L2115.8488,359.7031 Q2115.2238,359.125 2114.63,358.8594 Q2114.0363,358.5781 2113.4113,358.5781 Q2112.0675,358.5781 2111.38,359.6563 Q2110.6925,360.7188 2110.6925,362.8125 Q2110.6925,364.9063 2111.38,365.9844 Q2112.0675,367.0469 2113.4113,367.0469 Q2114.0363,367.0469 2114.63,366.7813 Q2115.2238,366.5 2115.8488,365.9219 L2115.8488,368.6406 Z " fill="#000000"/><text fill="#000000" font-family="sans-serif" font-size="14" lengthAdjust="spacing" textLength="136.2334" x="2126.88" y="367.8467">CreateUserRequest</text></g><!--class TransactionResponse--><g id="elem_TransactionResponse"><rect codeLine="190" fill="#F1F1F1" height="32" id="TransactionResponse" rx="2.5" ry="2.5" style="stroke:#181818;stroke-width:0.5;" width="182.0146" x="2583.99" y="347"/><ellipse cx="2598.99" cy="363" fill="#ADD1B2" rx="11" ry="11" style="stroke:#181818;stroke-width:1;"/><path d="M2601.9588,368.6406 Q2601.3806,368.9375 2600.74,369.0781 Q2600.0994,369.2344 2599.3963,369.2344 Q2596.8963,369.2344 2595.5681,367.5938 Q2594.2556,365.9375 2594.2556,362.8125 Q2594.2556,359.6875 2595.5681,358.0313 Q2596.8963,356.375 2599.3963,356.375 Q2600.0994,356.375 2600.74,356.5313 Q2601.3963,356.6875 2601.9588,356.9844 L2601.9588,359.7031 Q2601.3338,359.125 2600.74,358.8594 Q2600.1463,358.5781 2599.5213,358.5781 Q2598.1775,358.5781 2597.49,359.6563 Q2596.8025,360.7188 2596.8025,362.8125 Q2596.8025,364.9063 2597.49,365.9844 Q2598.1775,367.0469 2599.5213,367.0469 Q2600.1463,367.0469 2600.74,366.7813 Q2601.3338,366.5 2601.9588,365.9219 L2601.9588,368.6406 Z " fill="#000000"/><text fill="#000000" font-family="sans-serif" font-size="14" lengthAdjust="spacing" textLength="150.0146" x="2612.99" y="367.8467">TransactionResponse</text></g><!--class UserDetailsResponse--><g id="elem_UserDetailsResponse"><rect codeLine="205" fill="#F1F1F1" height="32" id="UserDetailsResponse" rx="2.5" ry="2.5" style="stroke:#181818;stroke-width:0.5;" width="180.3125" x="2343.84" y="531"/><ellipse cx="2358.84" cy="547" fill="#ADD1B2" rx="11" ry="11" style="stroke:#181818;stroke-width:1;"/><path d="M2361.8088,552.6406 Q2361.2306,552.9375 2360.59,553.0781 Q2359.9494,553.2344 2359.2463,553.2344 Q2356.7463,553.2344 2355.4181,551.5938 Q2354.1056,549.9375 2354.1056,546.8125 Q2354.1056,543.6875 2355.4181,542.0313 Q2356.7463,540.375 2359.2463,540.375 Q2359.9494,540.375 2360.59,540.5313 Q2361.2463,540.6875 2361.8088,540.9844 L2361.8088,543.7031 Q2361.1838,543.125 2360.59,542.8594 Q2359.9963,542.5781 2359.3713,542.5781 Q2358.0275,542.5781 2357.34,543.6563 Q2356.6525,544.7188 2356.6525,546.8125 Q2356.6525,548.9063 2357.34,549.9844 Q2358.0275,551.0469 2359.3713,551.0469 Q2359.9963,551.0469 2360.59,550.7813 Q2361.1838,550.5 2361.8088,549.9219 L2361.8088,552.6406 Z " fill="#000000"/><text fill="#000000" font-family="sans-serif" font-size="14" lengthAdjust="spacing" textLength="148.3125" x="2372.84" y="551.8467">UserDetailsResponse</text></g><!--class TokenResponse--><g id="elem_TokenResponse"><rect codeLine="212" fill="#F1F1F1" height="32" id="TokenResponse" rx="2.5" ry="2.5" style="stroke:#181818;stroke-width:0.5;" width="142.5781" x="2977.71" y="240"/><ellipse cx="2992.71" cy="256" fill="#ADD1B2" rx="11" ry="11" style="stroke:#181818;stroke-width:1;"/><path d="M2995.6788,261.6406 Q2995.1006,261.9375 2994.46,262.0781 Q2993.8194,262.2344 2993.1163,262.2344 Q2990.6163,262.2344 2989.2881,260.5938 Q2987.9756,258.9375 2987.9756,255.8125 Q2987.9756,252.6875 2989.2881,251.0313 Q2990.6163,249.375 2993.1163,249.375 Q2993.8194,249.375 2994.46,249.5313 Q2995.1163,249.6875 2995.6788,249.9844 L2995.6788,252.7031 Q2995.0538,252.125 2994.46,251.8594 Q2993.8663,251.5781 2993.2413,251.5781 Q2991.8975,251.5781 2991.21,252.6563 Q2990.5225,253.7188 2990.5225,255.8125 Q2990.5225,257.9063 2991.21,258.9844 Q2991.8975,260.0469 2993.2413,260.0469 Q2993.8663,260.0469 2994.46,259.7813 Q2995.0538,259.5 2995.6788,258.9219 L2995.6788,261.6406 Z " fill="#000000"/><text fill="#000000" font-family="sans-serif" font-size="14" lengthAdjust="spacing" textLength="110.5781" x="3006.71" y="260.8467">TokenResponse</text></g><!--class ConvertCurrencyRequest--><g id="elem_ConvertCurrencyRequest"><rect codeLine="218" fill="#F1F1F1" height="32" id="ConvertCurrencyRequest" rx="2.5" ry="2.5" style="stroke:#181818;stroke-width:0.5;" width="208.4834" x="2733.76" y="240"/><ellipse cx="2748.76" cy="256" fill="#ADD1B2" rx="11" ry="11" style="stroke:#181818;stroke-width:1;"/><path d="M2751.7288,261.6406 Q2751.1506,261.9375 2750.51,262.0781 Q2749.8694,262.2344 2749.1663,262.2344 Q2746.6663,262.2344 2745.3381,260.5938 Q2744.0256,258.9375 2744.0256,255.8125 Q2744.0256,252.6875 2745.3381,251.0313 Q2746.6663,249.375 2749.1663,249.375 Q2749.8694,249.375 2750.51,249.5313 Q2751.1663,249.6875 2751.7288,249.9844 L2751.7288,252.7031 Q2751.1038,252.125 2750.51,251.8594 Q2749.9163,251.5781 2749.2913,251.5781 Q2747.9475,251.5781 2747.26,252.6563 Q2746.5725,253.7188 2746.5725,255.8125 Q2746.5725,257.9063 2747.26,258.9844 Q2747.9475,260.0469 2749.2913,260.0469 Q2749.9163,260.0469 2750.51,259.7813 Q2751.1038,259.5 2751.7288,258.9219 L2751.7288,261.6406 Z " fill="#000000"/><text fill="#000000" font-family="sans-serif" font-size="14" lengthAdjust="spacing" textLength="176.4834" x="2762.76" y="260.8467">ConvertCurrencyRequest</text></g><!--class ConvertCurrencyResponse--><g id="elem_ConvertCurrencyResponse"><rect codeLine="224" fill="#F1F1F1" height="32" id="ConvertCurrencyResponse" rx="2.5" ry="2.5" style="stroke:#181818;stroke-width:0.5;" width="218.8535" x="3155.57" y="240"/><ellipse cx="3170.57" cy="256" fill="#ADD1B2" rx="11" ry="11" style="stroke:#181818;stroke-width:1;"/><path d="M3173.5388,261.6406 Q3172.9606,261.9375 3172.32,262.0781 Q3171.6794,262.2344 3170.9763,262.2344 Q3168.4763,262.2344 3167.1481,260.5938 Q3165.8356,258.9375 3165.8356,255.8125 Q3165.8356,252.6875 3167.1481,251.0313 Q3168.4763,249.375 3170.9763,249.375 Q3171.6794,249.375 3172.32,249.5313 Q3172.9763,249.6875 3173.5388,249.9844 L3173.5388,252.7031 Q3172.9138,252.125 3172.32,251.8594 Q3171.7263,251.5781 3171.1013,251.5781 Q3169.7575,251.5781 3169.07,252.6563 Q3168.3825,253.7188 3168.3825,255.8125 Q3168.3825,257.9063 3169.07,258.9844 Q3169.7575,260.0469 3171.1013,260.0469 Q3171.7263,260.0469 3172.32,259.7813 Q3172.9138,259.5 3173.5388,258.9219 L3173.5388,261.6406 Z " fill="#000000"/><text fill="#000000" font-family="sans-serif" font-size="14" lengthAdjust="spacing" textLength="186.8535" x="3184.57" y="260.8467">ConvertCurrencyResponse</text></g><!--class AccountOverviewResponse--><g id="elem_AccountOverviewResponse"><rect codeLine="229" fill="#F1F1F1" height="32" id="AccountOverviewResponse" rx="2.5" ry="2.5" style="stroke:#181818;stroke-width:0.5;" width="222.5518" x="2475.72" y="240"/><ellipse cx="2490.72" cy="256" fill="#ADD1B2" rx="11" ry="11" style="stroke:#181818;stroke-width:1;"/><path d="M2493.6888,261.6406 Q2493.1106,261.9375 2492.47,262.0781 Q2491.8294,262.2344 2491.1263,262.2344 Q2488.6263,262.2344 2487.2981,260.5938 Q2485.9856,258.9375 2485.9856,255.8125 Q2485.9856,252.6875 2487.2981,251.0313 Q2488.6263,249.375 2491.1263,249.375 Q2491.8294,249.375 2492.47,249.5313 Q2493.1263,249.6875 2493.6888,249.9844 L2493.6888,252.7031 Q2493.0638,252.125 2492.47,251.8594 Q2491.8763,251.5781 2491.2513,251.5781 Q2489.9075,251.5781 2489.22,252.6563 Q2488.5325,253.7188 2488.5325,255.8125 Q2488.5325,257.9063 2489.22,258.9844 Q2489.9075,260.0469 2491.2513,260.0469 Q2491.8763,260.0469 2492.47,259.7813 Q2493.0638,259.5 2493.6888,258.9219 L2493.6888,261.6406 Z " fill="#000000"/><text fill="#000000" font-family="sans-serif" font-size="14" lengthAdjust="spacing" textLength="190.5518" x="2504.72" y="260.8467">AccountOverviewResponse</text></g><!--class Currency--><g id="elem_Currency"><rect codeLine="238" fill="#F1F1F1" height="32" id="Currency" rx="2.5" ry="2.5" style="stroke:#181818;stroke-width:0.5;" width="95.6289" x="1873.19" y="681"/><ellipse cx="1888.19" cy="697" fill="#EB937F" rx="11" ry="11" style="stroke:#181818;stroke-width:1;"/><path d="M1892.2994,703 L1884.5806,703 L1884.5806,690.6094 L1892.2994,690.6094 L1892.2994,692.7656 L1887.0338,692.7656 L1887.0338,695.4375 L1891.7994,695.4375 L1891.7994,697.5938 L1887.0338,697.5938 L1887.0338,700.8438 L1892.2994,700.8438 L1892.2994,703 Z " fill="#000000"/><text fill="#000000" font-family="sans-serif" font-size="14" lengthAdjust="spacing" textLength="63.6289" x="1902.19" y="701.8467">Currency</text></g><!--class TransactionStatus--><g id="elem_TransactionStatus"><rect codeLine="245" fill="#F1F1F1" height="32" id="TransactionStatus" rx="2.5" ry="2.5" style="stroke:#181818;stroke-width:0.5;" width="158.7588" x="2317.62" y="681"/><ellipse cx="2332.62" cy="697" fill="#EB937F" rx="11" ry="11" style="stroke:#181818;stroke-width:1;"/><path d="M2336.7294,703 L2329.0106,703 L2329.0106,690.6094 L2336.7294,690.6094 L2336.7294,692.7656 L2331.4638,692.7656 L2331.4638,695.4375 L2336.2294,695.4375 L2336.2294,697.5938 L2331.4638,697.5938 L2331.4638,700.8438 L2336.7294,700.8438 L2336.7294,703 Z " fill="#000000"/><text fill="#000000" font-family="sans-serif" font-size="14" lengthAdjust="spacing" textLength="126.7588" x="2346.62" y="701.8467">TransactionStatus</text></g><!--class TransactionType--><g id="elem_TransactionType"><rect codeLine="252" fill="#F1F1F1" height="32" id="TransactionType" rx="2.5" ry="2.5" style="stroke:#181818;stroke-width:0.5;" width="148.4844" x="2133.76" y="681"/><ellipse cx="2148.76" cy="697" fill="#EB937F" rx="11" ry="11" style="stroke:#181818;stroke-width:1;"/><path d="M2152.8694,703 L2145.1506,703 L2145.1506,690.6094 L2152.8694,690.6094 L2152.8694,692.7656 L2147.6038,692.7656 L2147.6038,695.4375 L2152.3694,695.4375 L2152.3694,697.5938 L2147.6038,697.5938 L2147.6038,700.8438 L2152.8694,700.8438 L2152.8694,703 Z " fill="#000000"/><text fill="#000000" font-family="sans-serif" font-size="14" lengthAdjust="spacing" textLength="116.4844" x="2162.76" y="701.8467">TransactionType</text></g><!--class UserRole--><g id="elem_UserRole"><rect codeLine="257" fill="#F1F1F1" height="32" id="UserRole" rx="2.5" ry="2.5" style="stroke:#181818;stroke-width:0.5;" width="94.7061" x="2003.65" y="681"/><ellipse cx="2018.65" cy="697" fill="#EB937F" rx="11" ry="11" style="stroke:#181818;stroke-width:1;"/><path d="M2022.7594,703 L2015.0406,703 L2015.0406,690.6094 L2022.7594,690.6094 L2022.7594,692.7656 L2017.4938,692.7656 L2017.4938,695.4375 L2022.2594,695.4375 L2022.2594,697.5938 L2017.4938,697.5938 L2017.4938,700.8438 L2022.7594,700.8438 L2022.7594,703 Z " fill="#000000"/><text fill="#000000" font-family="sans-serif" font-size="14" lengthAdjust="spacing" textLength="62.7061" x="2032.65" y="701.8467">UserRole</text></g><!--class UserView--><g id="elem_UserView"><rect codeLine="264" fill="#F1F1F1" height="32" id="UserView" rx="2.5" ry="2.5" style="stroke:#181818;stroke-width:0.5;" width="97.4404" x="833.28" y="41"/><ellipse cx="848.28" cy="57" fill="#ADD1B2" rx="11" ry="11" style="stroke:#181818;stroke-width:1;"/><path d="M851.2488,62.6406 Q850.6706,62.9375 850.03,63.0781 Q849.3894,63.2344 848.6863,63.2344 Q846.1863,63.2344 844.8581,61.5938 Q843.5456,59.9375 843.5456,56.8125 Q843.5456,53.6875 844.8581,52.0313 Q846.1863,50.375 848.6863,50.375 Q849.3894,50.375 850.03,50.5313 Q850.6863,50.6875 851.2488,50.9844 L851.2488,53.7031 Q850.6238,53.125 850.03,52.8594 Q849.4363,52.5781 848.8113,52.5781 Q847.4675,52.5781 846.78,53.6563 Q846.0925,54.7188 846.0925,56.8125 Q846.0925,58.9063 846.78,59.9844 Q847.4675,61.0469 848.8113,61.0469 Q849.4363,61.0469 850.03,60.7813 Q850.6238,60.5 851.2488,59.9219 L851.2488,62.6406 Z " fill="#000000"/><text fill="#000000" font-family="sans-serif" font-size="14" lengthAdjust="spacing" textLength="65.4404" x="862.28" y="61.8467">UserView</text></g><!--class AccountView--><g id="elem_AccountView"><rect codeLine="273" fill="#F1F1F1" height="32" id="AccountView" rx="2.5" ry="2.5" style="stroke:#181818;stroke-width:0.5;" width="122.3027" x="965.85" y="41"/><ellipse cx="980.85" cy="57" fill="#ADD1B2" rx="11" ry="11" style="stroke:#181818;stroke-width:1;"/><path d="M983.8188,62.6406 Q983.2406,62.9375 982.6,63.0781 Q981.9594,63.2344 981.2563,63.2344 Q978.7563,63.2344 977.4281,61.5938 Q976.1156,59.9375 976.1156,56.8125 Q976.1156,53.6875 977.4281,52.0313 Q978.7563,50.375 981.2563,50.375 Q981.9594,50.375 982.6,50.5313 Q983.2563,50.6875 983.8188,50.9844 L983.8188,53.7031 Q983.1938,53.125 982.6,52.8594 Q982.0063,52.5781 981.3813,52.5781 Q980.0375,52.5781 979.35,53.6563 Q978.6625,54.7188 978.6625,56.8125 Q978.6625,58.9063 979.35,59.9844 Q980.0375,61.0469 981.3813,61.0469 Q982.0063,61.0469 982.6,60.7813 Q983.1938,60.5 983.8188,59.9219 L983.8188,62.6406 Z " fill="#000000"/><text fill="#000000" font-family="sans-serif" font-size="14" lengthAdjust="spacing" textLength="90.3027" x="994.85" y="61.8467">AccountView</text></g><!--class CardView--><g id="elem_CardView"><rect codeLine="284" fill="#F1F1F1" height="32" id="CardView" rx="2.5" ry="2.5" style="stroke:#181818;stroke-width:0.5;" width="98.5273" x="1450.74" y="41"/><ellipse cx="1465.74" cy="57" fill="#ADD1B2" rx="11" ry="11" style="stroke:#181818;stroke-width:1;"/><path d="M1468.7088,62.6406 Q1468.1306,62.9375 1467.49,63.0781 Q1466.8494,63.2344 1466.1463,63.2344 Q1463.6463,63.2344 1462.3181,61.5938 Q1461.0056,59.9375 1461.0056,56.8125 Q1461.0056,53.6875 1462.3181,52.0313 Q1463.6463,50.375 1466.1463,50.375 Q1466.8494,50.375 1467.49,50.5313 Q1468.1463,50.6875 1468.7088,50.9844 L1468.7088,53.7031 Q1468.0838,53.125 1467.49,52.8594 Q1466.8963,52.5781 1466.2713,52.5781 Q1464.9275,52.5781 1464.24,53.6563 Q1463.5525,54.7188 1463.5525,56.8125 Q1463.5525,58.9063 1464.24,59.9844 Q1464.9275,61.0469 1466.2713,61.0469 Q1466.8963,61.0469 1467.49,60.7813 Q1468.0838,60.5 1468.7088,59.9219 L1468.7088,62.6406 Z " fill="#000000"/><text fill="#000000" font-family="sans-serif" font-size="14" lengthAdjust="spacing" textLength="66.5273" x="1479.74" y="61.8467">CardView</text></g><!--class TransactionView--><g id="elem_TransactionView"><rect codeLine="292" fill="#F1F1F1" height="32" id="TransactionView" rx="2.5" ry="2.5" style="stroke:#181818;stroke-width:0.5;" width="147.6777" x="1268.16" y="41"/><ellipse cx="1283.16" cy="57" fill="#ADD1B2" rx="11" ry="11" style="stroke:#181818;stroke-width:1;"/><path d="M1286.1288,62.6406 Q1285.5506,62.9375 1284.91,63.0781 Q1284.2694,63.2344 1283.5663,63.2344 Q1281.0663,63.2344 1279.7381,61.5938 Q1278.4256,59.9375 1278.4256,56.8125 Q1278.4256,53.6875 1279.7381,52.0313 Q1281.0663,50.375 1283.5663,50.375 Q1284.2694,50.375 1284.91,50.5313 Q1285.5663,50.6875 1286.1288,50.9844 L1286.1288,53.7031 Q1285.5038,53.125 1284.91,52.8594 Q1284.3163,52.5781 1283.6913,52.5781 Q1282.3475,52.5781 1281.66,53.6563 Q1280.9725,54.7188 1280.9725,56.8125 Q1280.9725,58.9063 1281.66,59.9844 Q1282.3475,61.0469 1283.6913,61.0469 Q1284.3163,61.0469 1284.91,60.7813 Q1285.5038,60.5 1286.1288,59.9219 L1286.1288,62.6406 Z " fill="#000000"/><text fill="#000000" font-family="sans-serif" font-size="14" lengthAdjust="spacing" textLength="115.6777" x="1297.16" y="61.8467">TransactionView</text></g><!--class AdminView--><g id="elem_AdminView"><rect codeLine="303" fill="#F1F1F1" height="32" id="AdminView" rx="2.5" ry="2.5" style="stroke:#181818;stroke-width:0.5;" width="110.3945" x="1122.8" y="41"/><ellipse cx="1137.8" cy="57" fill="#ADD1B2" rx="11" ry="11" style="stroke:#181818;stroke-width:1;"/><path d="M1140.7688,62.6406 Q1140.1906,62.9375 1139.55,63.0781 Q1138.9094,63.2344 1138.2063,63.2344 Q1135.7063,63.2344 1134.3781,61.5938 Q1133.0656,59.9375 1133.0656,56.8125 Q1133.0656,53.6875 1134.3781,52.0313 Q1135.7063,50.375 1138.2063,50.375 Q1138.9094,50.375 1139.55,50.5313 Q1140.2063,50.6875 1140.7688,50.9844 L1140.7688,53.7031 Q1140.1438,53.125 1139.55,52.8594 Q1138.9563,52.5781 1138.3313,52.5781 Q1136.9875,52.5781 1136.3,53.6563 Q1135.6125,54.7188 1135.6125,56.8125 Q1135.6125,58.9063 1136.3,59.9844 Q1136.9875,61.0469 1138.3313,61.0469 Q1138.9563,61.0469 1139.55,60.7813 Q1140.1438,60.5 1140.7688,59.9219 L1140.7688,62.6406 Z " fill="#000000"/><text fill="#000000" font-family="sans-serif" font-size="14" lengthAdjust="spacing" textLength="78.3945" x="1151.8" y="61.8467">AdminView</text></g><!--class AccountOverviewView--><g id="elem_AccountOverviewView"><rect codeLine="314" fill="#F1F1F1" height="32" id="AccountOverviewView" rx="2.5" ry="2.5" style="stroke:#181818;stroke-width:0.5;" width="188.2148" x="1583.89" y="41"/><ellipse cx="1598.89" cy="57" fill="#ADD1B2" rx="11" ry="11" style="stroke:#181818;stroke-width:1;"/><path d="M1601.8588,62.6406 Q1601.2806,62.9375 1600.64,63.0781 Q1599.9994,63.2344 1599.2963,63.2344 Q1596.7963,63.2344 1595.4681,61.5938 Q1594.1556,59.9375 1594.1556,56.8125 Q1594.1556,53.6875 1595.4681,52.0313 Q1596.7963,50.375 1599.2963,50.375 Q1599.9994,50.375 1600.64,50.5313 Q1601.2963,50.6875 1601.8588,50.9844 L1601.8588,53.7031 Q1601.2338,53.125 1600.64,52.8594 Q1600.0463,52.5781 1599.4213,52.5781 Q1598.0775,52.5781 1597.39,53.6563 Q1596.7025,54.7188 1596.7025,56.8125 Q1596.7025,58.9063 1597.39,59.9844 Q1598.0775,61.0469 1599.4213,61.0469 Q1600.0463,61.0469 1600.64,60.7813 Q1601.2338,60.5 1601.8588,59.9219 L1601.8588,62.6406 Z " fill="#000000"/><text fill="#000000" font-family="sans-serif" font-size="14" lengthAdjust="spacing" textLength="156.2148" x="1612.89" y="61.8467">AccountOverviewView</text></g><!--class CurrencyView--><g id="elem_CurrencyView"><rect codeLine="319" fill="#F1F1F1" height="32" id="CurrencyView" rx="2.5" ry="2.5" style="stroke:#181818;stroke-width:0.5;" width="129.1592" x="1807.42" y="41"/><ellipse cx="1822.42" cy="57" fill="#ADD1B2" rx="11" ry="11" style="stroke:#181818;stroke-width:1;"/><path d="M1825.3888,62.6406 Q1824.8106,62.9375 1824.17,63.0781 Q1823.5294,63.2344 1822.8263,63.2344 Q1820.3263,63.2344 1818.9981,61.5938 Q1817.6856,59.9375 1817.6856,56.8125 Q1817.6856,53.6875 1818.9981,52.0313 Q1820.3263,50.375 1822.8263,50.375 Q1823.5294,50.375 1824.17,50.5313 Q1824.8263,50.6875 1825.3888,50.9844 L1825.3888,53.7031 Q1824.7638,53.125 1824.17,52.8594 Q1823.5763,52.5781 1822.9513,52.5781 Q1821.6075,52.5781 1820.92,53.6563 Q1820.2325,54.7188 1820.2325,56.8125 Q1820.2325,58.9063 1820.92,59.9844 Q1821.6075,61.0469 1822.9513,61.0469 Q1823.5763,61.0469 1824.17,60.7813 Q1824.7638,60.5 1825.3888,59.9219 L1825.3888,62.6406 Z " fill="#000000"/><text fill="#000000" font-family="sans-serif" font-size="14" lengthAdjust="spacing" textLength="97.1592" x="1836.42" y="61.8467">CurrencyView</text></g><!--link Account to User--><g id="link_Account_User"><path codeLine="326" d="M755,471.45 C755,488.19 755,508 755,524.69 " fill="none" id="Account-to-User" style="stroke:#181818;stroke-width:1;"/><polygon fill="#181818" points="755,530.69,759,521.69,755,525.69,751,521.69,755,530.69" style="stroke:#181818;stroke-width:1;"/><text fill="#000000" font-family="sans-serif" font-size="13" lengthAdjust="spacing" textLength="28.355" x="726" y="497.1369">user</text></g><!--link Card to Account--><g id="link_Card_Account"><path codeLine="327" d="M749.06,379.45 C749.06,396.19 749.06,416 749.06,432.69 " fill="none" id="Card-to-Account" style="stroke:#181818;stroke-width:1;"/><polygon fill="#181818" points="749.06,438.69,753.06,429.69,749.06,433.69,745.06,429.69,749.06,438.69" style="stroke:#181818;stroke-width:1;"/><text fill="#000000" font-family="sans-serif" font-size="13" lengthAdjust="spacing" textLength="51.7905" x="697.06" y="405.1369">account</text></g><!--link Transaction to Account--><g id="link_Transaction_Account"><path codeLine="328" d="M816.74,356 C803.62,356 793.44,356 793.44,356 C793.44,356 793.44,404.53 793.44,432.65 " fill="none" id="Transaction-to-Account" style="stroke:#181818;stroke-width:1;"/><polygon fill="#181818" points="793.44,438.65,797.44,429.65,793.44,433.65,789.44,429.65,793.44,438.65" style="stroke:#181818;stroke-width:1;"/><text fill="#000000" font-family="sans-serif" font-size="13" lengthAdjust="spacing" textLength="88.8291" x="794.44" y="398.7469">account_from</text></g><!--link Transaction to Account--><g id="link_Transaction_Account"><path codeLine="329" d="M816.71,364 C806.7,364 799.41,364 799.41,364 C799.41,364 799.41,406.56 799.41,432.73 " fill="none" id="Transaction-to-Account-1" style="stroke:#181818;stroke-width:1;"/><polygon fill="#181818" points="799.41,438.73,803.41,429.73,799.41,433.73,795.41,429.73,799.41,438.73" style="stroke:#181818;stroke-width:1;"/><text fill="#000000" font-family="sans-serif" font-size="13" lengthAdjust="spacing" textLength="71.3413" x="763.91" y="405.7869">account_to</text></g><!--link AccountResponse to UserDetailsResponse--><g id="link_AccountResponse_UserDetailsResponse"><path codeLine="330" d="M2496.92,471.45 C2496.92,488.19 2496.92,508 2496.92,524.69 " fill="none" id="AccountResponse-to-UserDetailsResponse" style="stroke:#181818;stroke-width:1;"/><polygon fill="#181818" points="2496.92,530.69,2500.92,521.69,2496.92,525.69,2492.92,521.69,2496.92,530.69" style="stroke:#181818;stroke-width:1;"/><text fill="#000000" font-family="sans-serif" font-size="13" lengthAdjust="spacing" textLength="28.355" x="2467.92" y="497.1369">user</text></g><!--link TransactionResponse to AccountResponse--><g id="link_TransactionResponse_AccountResponse"><path codeLine="331" d="M2605.16,379.45 C2605.16,396.19 2605.16,416 2605.16,432.69 " fill="none" id="TransactionResponse-to-AccountResponse" style="stroke:#181818;stroke-width:1;"/><polygon fill="#181818" points="2605.16,438.69,2609.16,429.69,2605.16,433.69,2601.16,429.69,2605.16,438.69" style="stroke:#181818;stroke-width:1;"/><text fill="#000000" font-family="sans-serif" font-size="13" lengthAdjust="spacing" textLength="88.8291" x="2516.16" y="405.1369">account_from</text></g><!--link TransactionResponse to AccountResponse--><g id="link_TransactionResponse_AccountResponse"><path codeLine="332" d="M2615.74,379.45 C2615.74,396.19 2615.74,416 2615.74,432.69 " fill="none" id="TransactionResponse-to-AccountResponse-1" style="stroke:#181818;stroke-width:1;"/><polygon fill="#181818" points="2615.74,438.69,2619.74,429.69,2615.74,433.69,2611.74,429.69,2615.74,438.69" style="stroke:#181818;stroke-width:1;"/><text fill="#000000" font-family="sans-serif" font-size="13" lengthAdjust="spacing" textLength="71.3413" x="2543.74" y="422.1369">account_to</text></g><!--link AccountOverviewResponse to UserDetailsResponse--><g id="link_AccountOverviewResponse_UserDetailsResponse"><path codeLine="333" d="M2475.48,257 C2463.28,257 2455.17,257 2455.17,257 C2455.17,257 2455.17,463.23 2455.17,524.58 " fill="none" id="AccountOverviewResponse-to-UserDetailsResponse" style="stroke:#181818;stroke-width:1;"/><polygon fill="#181818" points="2455.17,530.58,2459.17,521.58,2455.17,525.58,2451.17,521.58,2455.17,530.58" style="stroke:#181818;stroke-width:1;"/><text fill="#000000" font-family="sans-serif" font-size="13" lengthAdjust="spacing" textLength="28.355" x="2426.17" y="396.6969">user</text></g><!--link AccountOverviewResponse to AccountResponse--><g id="link_AccountOverviewResponse_AccountResponse"><path codeLine="334" d="M2547.9,272.29 C2547.9,309.69 2547.9,395.41 2547.9,432.77 " fill="none" id="AccountOverviewResponse-to-AccountResponse" style="stroke:#181818;stroke-width:1;"/><polygon fill="#181818" points="2547.9,438.77,2551.9,429.77,2547.9,433.77,2543.9,429.77,2547.9,438.77" style="stroke:#181818;stroke-width:1;"/><text fill="#000000" font-family="sans-serif" font-size="13" lengthAdjust="spacing" textLength="51.7905" x="2495.9" y="351.5969">account</text></g><!--link AccountOverviewResponse to CardResponse--><g id="link_AccountOverviewResponse_CardResponse"><path codeLine="335" d="M2511.81,272.4 C2511.81,302.62 2511.81,364 2511.81,364 C2511.81,364 2478.41,364 2440.85,364 " fill="none" id="AccountOverviewResponse-to-CardResponse" style="stroke:#181818;stroke-width:1;"/><polygon fill="#181818" points="2434.85,364,2443.85,368,2439.85,364,2443.85,360,2434.85,364" style="stroke:#181818;stroke-width:1;"/><text fill="#000000" font-family="sans-serif" font-size="13" lengthAdjust="spacing" textLength="35.4834" x="2475.81" y="369.7469">cards</text></g><!--link AccountOverviewResponse to TransactionResponse--><g id="link_AccountOverviewResponse_TransactionResponse"><path codeLine="336" d="M2641.13,272.25 C2641.13,292.36 2641.13,320.41 2641.13,340.6 " fill="none" id="AccountOverviewResponse-to-TransactionResponse" style="stroke:#181818;stroke-width:1;"/><polygon fill="#181818" points="2641.13,346.6,2645.13,337.6,2641.13,341.6,2637.13,337.6,2641.13,346.6" style="stroke:#181818;stroke-width:1;"/><text fill="#000000" font-family="sans-serif" font-size="13" lengthAdjust="spacing" textLength="80.209" x="2560.13" y="305.4869">transactions</text></g><!--link AccountRepository to Account--><g id="link_AccountRepository_Account"><path codeLine="338" d="M304.31,272.43 C304.31,321.08 304.31,461 304.31,461 C304.31,461 595.46,461 710.38,461 " fill="none" id="AccountRepository-to-Account" style="stroke:#181818;stroke-width:1;"/><polygon fill="#181818" points="716.38,461,707.38,457,711.38,461,707.38,465,716.38,461" style="stroke:#181818;stroke-width:1;"/></g><!--link AccountRepository to User--><g id="link_AccountRepository_User"><path codeLine="339" d="M249.69,272.2 C249.69,332.7 249.69,542 249.69,542 C249.69,542 605.1,542 716.62,542 " fill="none" id="AccountRepository-to-User" style="stroke:#181818;stroke-width:1;"/><polygon fill="#181818" points="722.62,542,713.62,538,717.62,542,713.62,546,722.62,542" style="stroke:#181818;stroke-width:1;"/></g><!--link CardRepository to Card--><g id="link_CardRepository_Card"><path codeLine="340" d="M487.34,272.4 C487.34,302.62 487.34,364 487.34,364 C487.34,364 639.85,364 710.13,364 " fill="none" id="CardRepository-to-Card" style="stroke:#181818;stroke-width:1;"/><polygon fill="#181818" points="716.13,364,707.13,360,711.13,364,707.13,368,716.13,364" style="stroke:#181818;stroke-width:1;"/></g><!--link CardRepository to Account--><g id="link_CardRepository_Account"><path codeLine="341" d="M440.66,272.21 C440.66,318.83 440.66,450 440.66,450 C440.66,450 621.96,450 710.12,450 " fill="none" id="CardRepository-to-Account" style="stroke:#181818;stroke-width:1;"/><polygon fill="#181818" points="716.12,450,707.12,446,711.12,450,707.12,454,716.12,450" style="stroke:#181818;stroke-width:1;"/></g><!--link TransactionRepository to Transaction--><g id="link_TransactionRepository_Transaction"><path codeLine="342" d="M758.96,257 C825.48,257 902.54,257 902.54,257 C902.54,257 902.54,311.25 902.54,340.9 " fill="none" id="TransactionRepository-to-Transaction" style="stroke:#181818;stroke-width:1;"/><polygon fill="#181818" points="902.54,346.9,906.54,337.9,902.54,341.9,898.54,337.9,902.54,346.9" style="stroke:#181818;stroke-width:1;"/></g><!--link TransactionRepository to Account--><g id="link_TransactionRepository_Account"><path codeLine="343" d="M758.83,265 C775.41,265 787.47,265 787.47,265 C787.47,265 787.47,386.85 787.47,432.8 " fill="none" id="TransactionRepository-to-Account" style="stroke:#181818;stroke-width:1;"/><polygon fill="#181818" points="787.47,438.8,791.47,429.8,787.47,433.8,783.47,429.8,787.47,438.8" style="stroke:#181818;stroke-width:1;"/></g><!--link UserRepository to User--><g id="link_UserRepository_User"><path codeLine="344" d="M91,272.39 C91,334.65 91,553 91,553 C91,553 584.34,553 716.97,553 " fill="none" id="UserRepository-to-User" style="stroke:#181818;stroke-width:1;"/><polygon fill="#181818" points="722.97,553,713.97,549,717.97,553,713.97,557,722.97,553" style="stroke:#181818;stroke-width:1;"/></g><!--reverse link RepositoryBase to AccountRepository--><g id="link_RepositoryBase_AccountRepository"><path codeLine="345" d="M307.92,198.45 C307.92,215.19 307.92,223 307.92,239.69 " fill="none" id="RepositoryBase-backto-AccountRepository" style="stroke:#181818;stroke-width:1;"/><polygon fill="none" points="307.92,180.45,301.92,198.45,313.92,198.45,307.92,180.45" style="stroke:#181818;stroke-width:1;"/></g><!--reverse link RepositoryBase to CardRepository--><g id="link_RepositoryBase_CardRepository"><path codeLine="346" d="M417.27,198.45 C417.27,215.19 417.27,223 417.27,239.69 " fill="none" id="RepositoryBase-backto-CardRepository" style="stroke:#181818;stroke-width:1;"/><polygon fill="none" points="417.27,180.45,411.27,198.45,423.27,198.45,417.27,180.45" style="stroke:#181818;stroke-width:1;"/></g><!--reverse link RepositoryBase to TransactionRepository--><g id="link_RepositoryBase_TransactionRepository"><path codeLine="347" d="M459.03,165 C536.76,165 632.46,165 632.46,165 C632.46,165 632.46,213.56 632.46,239.73 " fill="none" id="RepositoryBase-backto-TransactionRepository" style="stroke:#181818;stroke-width:1;"/><polygon fill="none" points="441.03,165,459.03,171,459.03,159,441.03,165" style="stroke:#181818;stroke-width:1;"/></g><!--reverse link RepositoryBase to UserRepository--><g id="link_RepositoryBase_UserRepository"><path codeLine="348" d="M281.16,165 C191.85,165 67.84,165 67.84,165 C67.84,165 67.84,213.56 67.84,239.73 " fill="none" id="RepositoryBase-backto-UserRepository" style="stroke:#181818;stroke-width:1;"/><polygon fill="none" points="299.16,165,281.16,159,281.16,171,299.16,165" style="stroke:#181818;stroke-width:1;"/></g><!--link Account to Currency--><g id="link_Account_Currency"><path codeLine="350" d="M796.17,471.47 C796.17,527.31 796.17,706 796.17,706 C796.17,706 1652.33,706 1867.03,706 " fill="none" id="Account-to-Currency" style="stroke:#181818;stroke-width:1;"/><polygon fill="#181818" points="1873.03,706,1864.03,702,1868.03,706,1864.03,710,1873.03,706" style="stroke:#181818;stroke-width:1;"/><text fill="#000000" font-family="sans-serif" font-size="13" lengthAdjust="spacing" textLength="57.1543" x="1159.33" y="719.0669">currency</text></g><!--link Card to Currency--><g id="link_Card_Currency"><path codeLine="351" d="M781.87,372 C796.47,372 810.42,372 810.42,372 C810.42,372 810.42,698 810.42,698 C810.42,698 1653.76,698 1866.92,698 " fill="none" id="Card-to-Currency" style="stroke:#181818;stroke-width:1;"/><polygon fill="#181818" points="1872.92,698,1863.92,694,1867.92,698,1863.92,702,1872.92,698" style="stroke:#181818;stroke-width:1;"/><text fill="#000000" font-family="sans-serif" font-size="13" lengthAdjust="spacing" textLength="57.1543" x="1106.4" y="694.0669">currency</text></g><!--link Transaction to Currency--><g id="link_Transaction_Currency"><path codeLine="352" d="M902.54,379.22 C902.54,445.2 902.54,690 902.54,690 C902.54,690 1665.03,690 1866.9,690 " fill="none" id="Transaction-to-Currency" style="stroke:#181818;stroke-width:1;"/><polygon fill="#181818" points="1872.9,690,1863.9,686,1867.9,690,1863.9,694,1872.9,690" style="stroke:#181818;stroke-width:1;"/><text fill="#000000" font-family="sans-serif" font-size="13" lengthAdjust="spacing" textLength="57.1543" x="1174.33" y="686.0669">currency</text></g><!--link Transaction to TransactionType--><g id="link_Transaction_TransactionType"><path codeLine="353" d="M845.46,379.34 C845.46,389.25 845.46,400 845.46,400 C845.46,400 2199.94,400 2199.94,400 C2199.94,400 2199.94,612.35 2199.94,674.61 " fill="none" id="Transaction-to-TransactionType" style="stroke:#181818;stroke-width:1;"/><polygon fill="#181818" points="2199.94,680.61,2203.94,671.61,2199.94,675.61,2195.94,671.61,2199.94,680.61" style="stroke:#181818;stroke-width:1;"/><text fill="#000000" font-family="sans-serif" font-size="13" lengthAdjust="spacing" textLength="29.0405" x="1622.67" y="396.0669">type</text></g><!--link Transaction to TransactionStatus--><g id="link_Transaction_TransactionStatus"><path codeLine="354" d="M874,379.33 C874,385.01 874,390 874,390 C874,390 2330.73,390 2330.73,390 C2330.73,390 2330.73,611.76 2330.73,674.93 " fill="none" id="Transaction-to-TransactionStatus" style="stroke:#181818;stroke-width:1;"/><polygon fill="#181818" points="2330.73,680.93,2334.73,671.93,2330.73,675.93,2326.73,671.93,2330.73,680.93" style="stroke:#181818;stroke-width:1;"/><text fill="#000000" font-family="sans-serif" font-size="13" lengthAdjust="spacing" textLength="39.9458" x="1702.49" y="386.0669">status</text></g><!--link User to UserRole--><g id="link_User_UserRole"><path codeLine="355" d="M787.24,542 C985.73,542 2033.44,542 2033.44,542 C2033.44,542 2033.44,634.91 2033.44,674.71 " fill="none" id="User-to-UserRole" style="stroke:#181818;stroke-width:1;"/><polygon fill="#181818" points="2033.44,680.71,2037.44,671.71,2033.44,675.71,2029.44,671.71,2033.44,680.71" style="stroke:#181818;stroke-width:1;"/><text fill="#000000" font-family="sans-serif" font-size="13" lengthAdjust="spacing" textLength="24.9082" x="1454.69" y="538.0669">role</text></g><!--link TransactionResponse to TransactionType--><g id="link_TransactionResponse_TransactionType"><path codeLine="356" d="M2594.57,379.22 C2594.57,399.05 2594.57,430 2594.57,430 C2594.57,430 2276.79,430 2276.79,430 C2276.79,430 2276.79,616.73 2276.79,674.7 " fill="none" id="TransactionResponse-to-TransactionType" style="stroke:#181818;stroke-width:1;"/><polygon fill="#181818" points="2276.79,680.7,2280.79,671.7,2276.79,675.7,2272.79,671.7,2276.79,680.7" style="stroke:#181818;stroke-width:1;"/><text fill="#000000" font-family="sans-serif" font-size="13" lengthAdjust="spacing" textLength="29.0405" x="2305.72" y="426.0669">type</text></g><!--link TransactionResponse to TransactionStatus--><g id="link_TransactionResponse_TransactionStatus"><path codeLine="357" d="M2696.16,379.16 C2696.16,446.08 2696.16,698 2696.16,698 C2696.16,698 2571.4,698 2482.78,698 " fill="none" id="TransactionResponse-to-TransactionStatus" style="stroke:#181818;stroke-width:1;"/><polygon fill="#181818" points="2476.78,698,2485.78,702,2481.78,698,2485.78,694,2476.78,698" style="stroke:#181818;stroke-width:1;"/><text fill="#000000" font-family="sans-serif" font-size="13" lengthAdjust="spacing" textLength="39.9458" x="2656.16" y="644.3369">status</text></g><!--link UserDetailsResponse to UserRole--><g id="link_UserDetailsResponse_UserRole"><path codeLine="358" d="M2343.56,553 C2240.55,553 2086.33,553 2086.33,553 C2086.33,553 2086.33,637.1 2086.33,674.76 " fill="none" id="UserDetailsResponse-to-UserRole" style="stroke:#181818;stroke-width:1;"/><polygon fill="#181818" points="2086.33,680.76,2090.33,671.76,2086.33,675.76,2082.33,671.76,2086.33,680.76" style="stroke:#181818;stroke-width:1;"/><text fill="#000000" font-family="sans-serif" font-size="13" lengthAdjust="spacing" textLength="24.9082" x="2126.07" y="549.0669">role</text></g><!--link TokenResponse to UserRole--><g id="link_TokenResponse_UserRole"><path codeLine="359" d="M3049,272.5 C3049,288.38 3049,310 3049,310 C3049,310 2074.78,310 2074.78,310 C2074.78,310 2074.78,601.62 2074.78,674.86 " fill="none" id="TokenResponse-to-UserRole" style="stroke:#181818;stroke-width:1;"/><polygon fill="#181818" points="2074.78,680.86,2078.78,671.86,2074.78,675.86,2070.78,671.86,2074.78,680.86" style="stroke:#181818;stroke-width:1;"/><text fill="#000000" font-family="sans-serif" font-size="13" lengthAdjust="spacing" textLength="59.7632" x="2335.21" y="306.0669">user_role</text></g><!--link ConvertCurrencyRequest to Currency--><g id="link_ConvertCurrencyRequest_Currency"><path codeLine="360" d="M2824.75,272.48 C2824.75,312.21 2824.75,410 2824.75,410 C2824.75,410 1905.06,410 1905.06,410 C1905.06,410 1905.06,614.03 1905.06,674.75 " fill="none" id="ConvertCurrencyRequest-to-Currency" style="stroke:#181818;stroke-width:1;"/><polygon fill="#181818" points="1905.06,680.75,1909.06,671.75,1905.06,675.75,1901.06,671.75,1905.06,680.75" style="stroke:#181818;stroke-width:1;"/><text fill="#000000" font-family="sans-serif" font-size="13" lengthAdjust="spacing" textLength="94.1929" x="2203.29" y="406.0669">from_currency</text></g><!--link ConvertCurrencyRequest to Currency--><g id="link_ConvertCurrencyRequest_Currency"><path codeLine="361" d="M2883.5,272.32 C2883.5,313.81 2883.5,420 2883.5,420 C2883.5,420 1936.94,420 1936.94,420 C1936.94,420 1936.94,614.87 1936.94,674.5 " fill="none" id="ConvertCurrencyRequest-to-Currency-1" style="stroke:#181818;stroke-width:1;"/><polygon fill="#181818" points="1936.94,680.5,1940.94,671.5,1936.94,675.5,1932.94,671.5,1936.94,680.5" style="stroke:#181818;stroke-width:1;"/><text fill="#000000" font-family="sans-serif" font-size="13" lengthAdjust="spacing" textLength="76.7051" x="2354.8" y="416.0669">to_currency</text></g><!--link UserView to UserController--><g id="link_UserView_UserController"><path codeLine="363" d="M882,73.25 C882,93.36 882,121.41 882,141.6 " fill="none" id="UserView-to-UserController" style="stroke:#181818;stroke-width:1;"/><polygon fill="#181818" points="882,147.6,886,138.6,882,142.6,878,138.6,882,147.6" style="stroke:#181818;stroke-width:1;"/></g><!--link AccountView to AccountController--><g id="link_AccountView_AccountController"><path codeLine="364" d="M1036.09,73.25 C1036.09,93.36 1036.09,121.41 1036.09,141.6 " fill="none" id="AccountView-to-AccountController" style="stroke:#181818;stroke-width:1;"/><polygon fill="#181818" points="1036.09,147.6,1040.09,138.6,1036.09,142.6,1032.09,138.6,1036.09,147.6" style="stroke:#181818;stroke-width:1;"/></g><!--link CardView to CardController--><g id="link_CardView_CardController"><path codeLine="365" d="M1490.2,73.33 C1490.2,95.93 1490.2,134 1490.2,134 C1490.2,134 1296.78,134 1296.78,134 C1296.78,134 1296.78,134.59 1296.78,141.6 " fill="none" id="CardView-to-CardController" style="stroke:#181818;stroke-width:1;"/><polygon fill="#181818" points="1296.78,147.6,1300.78,138.6,1296.78,142.6,1292.78,138.6,1296.78,147.6" style="stroke:#181818;stroke-width:1;"/></g><!--link TransactionView to TransactionController--><g id="link_TransactionView_TransactionController"><path codeLine="366" d="M1392.67,73.25 C1392.67,93.36 1392.67,121.41 1392.67,141.6 " fill="none" id="TransactionView-to-TransactionController" style="stroke:#181818;stroke-width:1;"/><polygon fill="#181818" points="1392.67,147.6,1396.67,138.6,1392.67,142.6,1388.67,138.6,1392.67,147.6" style="stroke:#181818;stroke-width:1;"/></g><!--link TransactionView to AccountController--><g id="link_TransactionView_AccountController"><path codeLine="367" d="M1282.47,73.44 C1282.47,86.99 1282.47,104 1282.47,104 C1282.47,104 1137.18,104 1137.18,104 C1137.18,104 1137.18,123.84 1137.18,141.6 " fill="none" id="TransactionView-to-AccountController" style="stroke:#181818;stroke-width:1;"/><polygon fill="#181818" points="1137.18,147.6,1141.18,138.6,1137.18,142.6,1133.18,138.6,1137.18,147.6" style="stroke:#181818;stroke-width:1;"/></g><!--link AdminView to UserController--><g id="link_AdminView_UserController"><path codeLine="368" d="M1127.6,73.38 C1127.6,81.25 1127.6,89 1127.6,89 C1127.6,89 939.63,89 939.63,89 C939.63,89 939.63,119.67 939.63,141.73 " fill="none" id="AdminView-to-UserController" style="stroke:#181818;stroke-width:1;"/><polygon fill="#181818" points="939.63,147.73,943.63,138.73,939.63,142.73,935.63,138.73,939.63,147.73" style="stroke:#181818;stroke-width:1;"/></g><!--link AdminView to AccountController--><g id="link_AdminView_AccountController"><path codeLine="369" d="M1132.39,73.25 C1132.39,93.36 1132.39,121.41 1132.39,141.6 " fill="none" id="AdminView-to-AccountController" style="stroke:#181818;stroke-width:1;"/><polygon fill="#181818" points="1132.39,147.6,1136.39,138.6,1132.39,142.6,1128.39,138.6,1132.39,147.6" style="stroke:#181818;stroke-width:1;"/></g><!--link AdminView to TransactionController--><g id="link_AdminView_TransactionController"><path codeLine="370" d="M1205.06,73.29 C1205.06,91.66 1205.06,119 1205.06,119 C1205.06,119 1369.51,119 1369.51,119 C1369.51,119 1369.51,128.86 1369.51,141.75 " fill="none" id="AdminView-to-TransactionController" style="stroke:#181818;stroke-width:1;"/><polygon fill="#181818" points="1369.51,147.75,1373.51,138.75,1369.51,142.75,1365.51,138.75,1369.51,147.75" style="stroke:#181818;stroke-width:1;"/></g><!--link AccountOverviewView to AccountOverviewController--><g id="link_AccountOverviewView_AccountOverviewController"><path codeLine="371" d="M1678,73.25 C1678,93.36 1678,121.41 1678,141.6 " fill="none" id="AccountOverviewView-to-AccountOverviewController" style="stroke:#181818;stroke-width:1;"/><polygon fill="#181818" points="1678,147.6,1682,138.6,1678,142.6,1674,138.6,1678,147.6" style="stroke:#181818;stroke-width:1;"/></g><!--link CurrencyView to ConvertCurrencyRequest--><g id="link_CurrencyView_ConvertCurrencyRequest"><path codeLine="372" d="M1936.88,63 C2153.47,63 2838,63 2838,63 C2838,63 2838,186.87 2838,233.55 " fill="none" id="CurrencyView-to-ConvertCurrencyRequest" style="stroke:#181818;stroke-width:1;"/><polygon fill="#181818" points="2838,239.55,2842,230.55,2838,234.55,2834,230.55,2838,239.55" style="stroke:#181818;stroke-width:1;"/></g><!--link CurrencyView to ConvertCurrencyResponse--><g id="link_CurrencyView_ConvertCurrencyResponse"><path codeLine="373" d="M1936.86,52 C2211.54,52 3265,52 3265,52 C3265,52 3265,185.24 3265,233.65 " fill="none" id="CurrencyView-to-ConvertCurrencyResponse" style="stroke:#181818;stroke-width:1;"/><polygon fill="#181818" points="3265,239.65,3269,230.65,3265,234.65,3261,230.65,3265,239.65" style="stroke:#181818;stroke-width:1;"/></g><!--link TransactionController to TransactionSerializerController--><g id="link_TransactionController_TransactionSerializerController"><path codeLine="375" d="M1478.19,180.45 C1478.19,197.19 1478.19,217 1478.19,233.69 " fill="none" id="TransactionController-to-TransactionSerializerController" style="stroke:#181818;stroke-width:1;"/><polygon fill="#181818" points="1478.19,239.69,1482.19,230.69,1478.19,234.69,1474.19,230.69,1478.19,239.69" style="stroke:#181818;stroke-width:1;"/></g><!--link AccountOverviewController to TransactionSerializerController--><g id="link_AccountOverviewController_TransactionSerializerController"><path codeLine="376" d="M1653.23,180.45 C1653.23,197.19 1653.23,217 1653.23,233.69 " fill="none" id="AccountOverviewController-to-TransactionSerializerController" style="stroke:#181818;stroke-width:1;"/><polygon fill="#181818" points="1653.23,239.69,1657.23,230.69,1653.23,234.69,1649.23,230.69,1653.23,239.69" style="stroke:#181818;stroke-width:1;"/></g><!--link AccountController to AccountRepository--><g id="link_AccountController_AccountRepository"><path codeLine="378" d="M1063,180.27 C1063,189.41 1063,199 1063,199 C1063,199 324.92,199 324.92,199 C324.92,199 324.92,216.68 324.92,233.51 " fill="none" id="AccountController-to-AccountRepository" style="stroke:#181818;stroke-width:1;"/><polygon fill="#181818" points="324.92,239.51,328.92,230.51,324.92,234.51,320.92,230.51,324.92,239.51" style="stroke:#181818;stroke-width:1;"/></g><!--link AccountOverviewController to AccountRepository--><g id="link_AccountOverviewController_AccountRepository"><path codeLine="379" d="M1587.11,180.48 C1587.11,196.04 1587.11,217 1587.11,217 C1587.11,217 350.42,217 350.42,217 C350.42,217 350.42,223 350.42,233.69 " fill="none" id="AccountOverviewController-to-AccountRepository" style="stroke:#181818;stroke-width:1;"/><polygon fill="#181818" points="350.42,239.69,354.42,230.69,350.42,234.69,346.42,230.69,350.42,239.69" style="stroke:#181818;stroke-width:1;"/></g><!--link AccountOverviewController to TransactionRepository--><g id="link_AccountOverviewController_TransactionRepository"><path codeLine="380" d="M1631.19,180.47 C1631.19,201.44 1631.19,235 1631.19,235 C1631.19,235 695.54,235 695.54,235 C695.54,235 695.54,231.05 695.54,233.87 " fill="none" id="AccountOverviewController-to-TransactionRepository" style="stroke:#181818;stroke-width:1;"/><polygon fill="#181818" points="695.54,239.87,699.54,230.87,695.54,234.87,691.54,230.87,695.54,239.87" style="stroke:#181818;stroke-width:1;"/></g><!--link AccountOverviewController to CardRepository--><g id="link_AccountOverviewController_CardRepository"><path codeLine="381" d="M1609.15,180.4 C1609.15,199.66 1609.15,229 1609.15,229 C1609.15,229 502.88,229 502.88,229 C502.88,229 502.88,227.99 502.88,233.67 " fill="none" id="AccountOverviewController-to-CardRepository" style="stroke:#181818;stroke-width:1;"/><polygon fill="#181818" points="502.88,239.67,506.88,230.67,502.88,234.67,498.88,230.67,502.88,239.67" style="stroke:#181818;stroke-width:1;"/></g><!--link CardController to CardRepository--><g id="link_CardController_CardRepository"><path codeLine="382" d="M1266.36,180.43 C1266.36,197.89 1266.36,223 1266.36,223 C1266.36,223 471.73,223 471.73,223 C471.73,223 471.73,225.51 471.73,233.89 " fill="none" id="CardController-to-CardRepository" style="stroke:#181818;stroke-width:1;"/><polygon fill="#181818" points="471.73,239.89,475.73,230.89,471.73,234.89,467.73,230.89,471.73,239.89" style="stroke:#181818;stroke-width:1;"/></g><!--link CardController to AccountRepository--><g id="link_CardController_AccountRepository"><path codeLine="383" d="M1221.64,180.2 C1221.64,191.66 1221.64,205 1221.64,205 C1221.64,205 333.42,205 333.42,205 C333.42,205 333.42,218.67 333.42,233.58 " fill="none" id="CardController-to-AccountRepository" style="stroke:#181818;stroke-width:1;"/><polygon fill="#181818" points="333.42,239.58,337.42,230.58,333.42,234.58,329.42,230.58,333.42,239.58" style="stroke:#181818;stroke-width:1;"/></g><!--link TransactionController to AccountRepository--><g id="link_TransactionController_AccountRepository"><path codeLine="384" d="M1373.14,180.44 C1373.14,193.99 1373.14,211 1373.14,211 C1373.14,211 341.92,211 341.92,211 C341.92,211 341.92,220.86 341.92,233.75 " fill="none" id="TransactionController-to-AccountRepository" style="stroke:#181818;stroke-width:1;"/><polygon fill="#181818" points="341.92,239.75,345.92,230.75,341.92,234.75,337.92,230.75,341.92,239.75" style="stroke:#181818;stroke-width:1;"/></g><!--link TransactionController to TransactionRepository--><g id="link_TransactionController_TransactionRepository"><path codeLine="385" d="M1399.93,180.39 C1399.93,205.09 1399.93,249 1399.93,249 C1399.93,249 964.02,249 765.08,249 " fill="none" id="TransactionController-to-TransactionRepository" style="stroke:#181818;stroke-width:1;"/><polygon fill="#181818" points="759.08,249,768.08,253,764.08,249,768.08,245,759.08,249" style="stroke:#181818;stroke-width:1;"/></g><!--link UserController to UserRepository--><g id="link_UserController_UserRepository"><path codeLine="386" d="M845.46,180.22 C845.46,184.03 845.46,187 845.46,187 C845.46,187 114.16,187 114.16,187 C114.16,187 114.16,213.24 114.16,233.65 " fill="none" id="UserController-to-UserRepository" style="stroke:#181818;stroke-width:1;"/><polygon fill="#181818" points="114.16,239.65,118.16,230.65,114.16,234.65,110.16,230.65,114.16,239.65" style="stroke:#181818;stroke-width:1;"/></g><!--link UserController to AccountRepository--><g id="link_UserController_AccountRepository"><path codeLine="387" d="M874,180.2 C874,186.84 874,193 874,193 C874,193 316.42,193 316.42,193 C316.42,193 316.42,215.11 316.42,233.78 " fill="none" id="UserController-to-AccountRepository" style="stroke:#181818;stroke-width:1;"/><polygon fill="#181818" points="316.42,239.78,320.42,230.78,316.42,234.78,312.42,230.78,316.42,239.78" style="stroke:#181818;stroke-width:1;"/></g><!--SRC=[rHfTRzisy5s_GkYJWoN3i4TX690cQH5WJG8dwSiG2BJ4n48aqQFefExM_pwIagWZUPHafzkmFgGMTRmZx_j3WcrYmU8L4u9LSLvmcec2rL6qBd8QLrIiMTxq3zMAyYQAckUYtX1EghWiQYfs6nepBW6ZQ4EoP_94utSPgmLdPIdXtyL_Hh7ybvMaQUBJB6FRMfoPzzrRzU-7cBHlKquth2a4uxkatx4qIn0-pzEQlgRTlaLE14dYCqw9e6RV7rlQY2E0gDcmkg40pHCLAIdBz97nTDjGlb1_alXU_ZsdWXHbqs-IQCgY4Ryxk1vSPDqzLhkqo1VzKv4dSL63euHtgGEehTt_U-shIKKN_OyaRWH7Tt9QiHSwUTGhLhUi-XRvOhn-eVobeAy1SGRP-0QH2qxgXcWbjVRS3UlelepmtDfm9XScASYZ5wGilgfx00gtPdcukICKBRd-SgpZqsAGHCywYoKMZzK10uoTVvbzsVjOr7cgq3TxM8EY3aqWqmQeBLEX2YCuZg75jfVepLKz-UggRzxggluvfQX0QD_9vnogW6zNgspBEQspNQhqHZAeU_midnpbQna4ANPyEex7X6bTmRDKJWKlg78Phgi4Kj3wWE21wf7Jaahr0CVR_wX6sYtAJKao2sEwekALqhetmMP17ZchZ6YFOo8OU89wQ1s_LyTntgX0LCaZxNeFwg4-pVDF2c0kHYuvpSKKaqRGM6QWc3ZYf2r5Lh3VnPTm-YIrWNQA0ZdSaj2CE8vN6TzjX2zJiXLhMeiYanliU7OSR-IbNXdFkqU3GY7s7P4yE6sQLB1dMWDdT1m_qrs7WPHFtQyNQO5vkf6co2HwKLHKwgiWH_eraZGeVCsYLtr4Mnz6lH9cyvPyZAy8wOAb0gtLp5AFRo1VgvYy99wgMOVfyBhguo-lI4dgJ8hhiMH484xCPUSW5YVEDO4W0pWWOvMsRTVv1C6LwUF0NWIUkBwJC84tQrRcaZL6QS6hUgioQNULVjaKd6Zhbgv4h5s4uFsE4kw-pbvUN8mgDNVNGlnt_TQeqivaYf9A6duj6FQoQeynLszafQ4S9StJq4x9CqGFMzw0Ezt91MXsWeXjup5PEnH9IzAH3eqgzn2uE9Pp3pSVuREoWHb6XoeMihOcpLgUsFAOa3kif9tFbx_yipPsnVE0E0yJ3mgAkv0XEbZtqhccSg7XWiSd3RRAS36ozNgZf4hAuFQnSWdVx3c70ozsBEzL5GAGaOiFeMnwkr6QbcvuKH6-Irl53ACkcXuqaMKzA-Uanl_8FGAE61DTCFt30nbkCsEN69ErYJaMnW7RUz9GEoAJ5xfGcObGQRywcYUjuEiszxLUEsbFVrx95d1vH2ecvxZ3ZBB9rhGY8Nji4u5_DRGR7PcN8ZdvibsoUPuUiSnPL_nFWhIzD2z8snT46bn-JlycoI7qG7bk4Jlu0dwTXHRcCaq8nRlvoG927XGX5bsCKEW0VbGDkzXP2lb_I9tsIeBSI8er161QD0SUpyt26PqNAXptynsphJQTmfL1bPyeILYVUZcyMamn6siBzp2zirQyVPi8KtMjPI7ra3eMB1Oc7B1B6RbpgtoDxgBXMWO0QBCjm-G27TL3Mz5ZamAt8CMq4rQQKmqn9sQl2QVvZrI67XEurODfzO4hBQ-lpE-B-wNvVNzxRdv_V7y3kQLHmTQ3DYE0y_BgykxozExY7AoaDylhZykBsrkpTdRzwUQt2mYrlFXyiUmN0iIKCG9ITzStwVtDyBWylRhzSB7qCFI52TXwUlxfyWhSr-o2h5IAu2G_2fNgbVgHSfXM9Kwd30PFtMFIiFIBK9qi-NZMFW4mfjfMFwSh6VnrrdEg7c-wCF5Uho8jiiM6xAHovqY3pCyGI_PKr0lUAL8I3ztqHyQhj6sqsOGxN1_aUvLDGaza8sPRWM2UcWEXR9qx-O7SzyQ3Q3DFp_eSZkqnxbCcQVh2GoTxncnlQ87F6_0XnBlcTt-BaO6RG_Anu8qr6mnCzJhm6SF0yT6J9rCzRu72iWTKUqfVjK-TETFHX6DLJNPz2BF3qG5_W8GsrlKWgTdGh7WiQ8joxs7IGHeForp8I7H8zNPBWVrYXrC7Z3XQg-b6Fz9JF4dMMMARcFgCpgKcgNTrCxxL7HoOOOovzVpfYrE4LaNzXfYnh-0ELP0vocVaDtDWWVkJy4S98P9MuxqYkK5roEYmcueDnZiz7vlr0OCdOtToZudG__fXv1k0_KR_OBIBPCt29EOoLck5JWBP_b4IIiQ7d6dud4SJFnLIugkje9UIs6tnbSO_HL4_2pev-RNjJoTQvo8z8L6BFK3ISow2um8KGXU8Cy04Yzo-LNyCjuxhJeMLtG0t00yTPUQsuMXUyJ5nnB5jGNgZkwokLz9MAgCRiEicLlKIHNu37nmmyFQ-LmndNN_GWQoV-WhZGC3MRnYgn-FqWisHd8xkBt-Td23ZQmpA-Re60y6__i0WdV6wPLgcpajCqsOmCUobQprpODoYBD6Tap6mhb1CkiQBvh3XgwxE4jtu25hGDCaGE4RQDIdq95QpnO4mdPCeq2DnM6crIMRk0TsJA3AbPtyG439W2GNK642ORBot8l3EJKaTzar0-hI6Z0SxglLoQZD-32pm0cn8JBM2eMO1Ae0PS5taY_2FmbpDmpx62d_tE6Ttv7_zQlbxunJ6oUmBZ_kcyJsEotE-HPm7uPyppFXzOF7xE9yu6PCVXV38_Wq0]--></g></svg>